<?xml version="1.0" encoding="utf-8" standalone="no"?>
<!DOCTYPE svg PUBLIC "-//W3C//DTD SVG 1.1//EN"
  "http://www.w3.org/Graphics/SVG/1.1/DTD/svg11.dtd">
<svg xmlns:xlink="http://www.w3.org/1999/xlink" width="236.423166pt" height="247.824678pt" viewBox="0 0 236.423166 247.824678" xmlns="http://www.w3.org/2000/svg" version="1.1">
 <metadata>
  <rdf:RDF xmlns:dc="http://purl.org/dc/elements/1.1/" xmlns:cc="http://creativecommons.org/ns#" xmlns:rdf="http://www.w3.org/1999/02/22-rdf-syntax-ns#">
   <cc:Work>
    <dc:type rdf:resource="http://purl.org/dc/dcmitype/StillImage"/>
    <dc:date>2025-08-19T13:01:50.600083</dc:date>
    <dc:format>image/svg+xml</dc:format>
    <dc:creator>
     <cc:Agent>
      <dc:title>Matplotlib v3.9.4, https://matplotlib.org/</dc:title>
     </cc:Agent>
    </dc:creator>
   </cc:Work>
  </rdf:RDF>
 </metadata>
 <defs>
  <style type="text/css">*{stroke-linejoin: round; stroke-linecap: butt}</style>
 </defs>
 <g id="figure_1">
  <g id="patch_1">
   <path d="M 0 247.824678 
L 236.423166 247.824678 
L 236.423166 0 
L 0 0 
z
" style="fill: #ffffff"/>
  </g>
  <g id="axes_1">
   <g id="patch_2">
    <path d="M 118.211591 27.681041 
C 117.245988 27.681041 116.280433 27.69483 115.315223 27.722404 
C 114.350013 27.749978 113.385246 27.791333 112.421217 27.846458 
L 118.211591 129.108745 
z
" style="fill: #8dd3c7; stroke: #000000; stroke-width: 0.5; stroke-linejoin: miter"/>
   </g>
   <g id="patch_3">
    <path d="M 112.421214 27.84646 
C 111.457183 27.901583 110.493989 27.970472 109.531926 28.053103 
C 108.569862 28.135734 107.609027 28.2321 106.649716 28.342172 
L 118.211591 129.108745 
z
" style="fill: #ffffb3; stroke: #000000; stroke-width: 0.5; stroke-linejoin: miter"/>
   </g>
   <g id="patch_4">
    <path d="M 106.649716 28.342172 
C 105.690404 28.452243 104.732714 28.576008 103.776936 28.71343 
C 102.821159 28.850851 101.867393 29.001906 100.91593 29.166563 
L 118.211591 129.108745 
z
" style="fill: #bebada; stroke: #000000; stroke-width: 0.5; stroke-linejoin: miter"/>
   </g>
   <g id="patch_5">
    <path d="M 100.91593 29.166563 
C 99.964469 29.33122 99.015402 29.509461 98.069031 29.70122 
C 97.12266 29.892979 96.179081 30.098244 95.238571 30.316949 
L 118.211591 129.108745 
z
" style="fill: #fb8072; stroke: #000000; stroke-width: 0.5; stroke-linejoin: miter"/>
   </g>
   <g id="patch_6">
    <path d="M 95.238571 30.316949 
C 94.29806 30.535653 93.360721 30.767778 92.426839 31.013252 
C 91.492957 31.258726 90.562627 31.517525 89.636135 31.789569 
L 118.211591 129.108745 
z
" style="fill: #80b1d3; stroke: #000000; stroke-width: 0.5; stroke-linejoin: miter"/>
   </g>
   <g id="patch_7">
    <path d="M 89.636135 31.789569 
C 88.709644 32.061613 87.787082 32.346867 86.868737 32.645258 
C 85.950392 32.943649 85.036354 33.255134 84.126905 33.579624 
L 118.211591 129.108745 
z
" style="fill: #b3de69; stroke: #000000; stroke-width: 0.5; stroke-linejoin: miter"/>
   </g>
   <g id="patch_8">
    <path d="M 84.126905 33.579624 
C 83.217456 33.904113 82.312683 34.241576 81.412871 34.591905 
C 80.513058 34.942233 79.618291 35.30539 78.728849 35.681273 
L 118.211591 129.108745 
z
" style="fill: #fccde5; stroke: #000000; stroke-width: 0.5; stroke-linejoin: miter"/>
   </g>
   <g id="patch_9">
    <path d="M 78.728849 35.681273 
C 77.839408 36.057156 76.95539 36.445716 76.077045 36.846839 
C 75.198701 37.247962 74.326123 37.661618 73.459592 38.08766 
L 118.211591 129.108745 
z
" style="fill: #d9d9d9; stroke: #000000; stroke-width: 0.5; stroke-linejoin: miter"/>
   </g>
   <g id="patch_10">
    <path d="M 73.459592 38.08766 
C 72.59306 38.513703 71.732656 38.952103 70.878642 39.402721 
C 70.024627 39.853339 69.177091 40.316127 68.336292 40.790946 
L 118.211591 129.108745 
z
" style="fill: #bc80bd; stroke: #000000; stroke-width: 0.5; stroke-linejoin: miter"/>
   </g>
   <g id="patch_11">
    <path d="M 68.336292 40.790946 
C 67.495497 41.265764 66.661517 41.752565 65.834623 42.251203 
C 65.00773 42.749841 64.187994 43.260256 63.375676 43.782302 
L 118.211591 129.108745 
z
" style="fill: #ccebc5; stroke: #000000; stroke-width: 0.5; stroke-linejoin: miter"/>
   </g>
   <g id="patch_12">
    <path d="M 63.375676 43.782302 
C 53.194967 50.325039 44.266923 58.637337 37.014564 68.325344 
C 29.762204 78.013352 24.301925 88.921592 20.892439 100.533207 
C 17.482954 112.144822 16.178981 124.273493 17.042311 136.344485 
C 17.905642 148.415478 20.922413 160.235075 25.949685 171.243285 
C 30.976957 182.251498 37.934069 192.271649 46.491351 200.828937 
C 55.048633 209.386225 65.068784 216.343343 76.076991 221.370627 
C 87.085198 226.397911 98.904798 229.414683 110.975789 230.278019 
C 123.046781 231.141356 135.175401 229.837407 146.787021 226.427933 
C 158.398638 223.01846 169.306906 217.558174 178.99492 210.305827 
C 188.682933 203.05348 196.995255 194.125412 203.537998 183.944709 
C 210.080742 173.764007 214.748913 162.494051 217.321348 150.668789 
C 219.893777 138.843529 220.329179 126.652735 218.606907 114.674089 
C 216.884641 102.695442 213.03236 91.121173 207.232574 80.499653 
C 201.432788 69.878135 193.778568 60.379819 184.632618 52.454806 
C 175.486668 44.529793 164.99578 38.305258 153.656977 34.076097 
C 142.318176 29.846936 130.313432 27.681041 118.211606 27.681041 
L 118.211591 129.108745 
z
" style="fill: #ffed6f; stroke: #000000; stroke-width: 0.5; stroke-linejoin: miter"/>
   </g>
   <g id="matplotlib.axis_1"/>
   <g id="matplotlib.axis_2"/>
   <g id="text_1">
    <!-- Category 1 -->
    <g transform="translate(68.095888 19.890801) scale(0.1 -0.1)">
     <defs>
      <path id="TimesNewRomanPS-BoldMT-43" d="M 4272 4334 
L 4272 2866 
L 4150 2866 
Q 4013 3441 3638 3747 
Q 3263 4053 2788 4053 
Q 2391 4053 2059 3825 
Q 1728 3597 1575 3228 
Q 1378 2756 1378 2178 
Q 1378 1609 1522 1142 
Q 1666 675 1972 436 
Q 2278 197 2766 197 
Q 3166 197 3498 372 
Q 3831 547 4200 975 
L 4200 609 
Q 3844 238 3458 70 
Q 3072 -97 2556 -97 
Q 1878 -97 1351 175 
Q 825 447 539 956 
Q 253 1466 253 2041 
Q 253 2647 570 3190 
Q 888 3734 1427 4034 
Q 1966 4334 2572 4334 
Q 3019 4334 3516 4141 
Q 3803 4028 3881 4028 
Q 3981 4028 4054 4101 
Q 4128 4175 4150 4334 
L 4272 4334 
z
" transform="scale(0.015625)"/>
      <path id="TimesNewRomanPS-BoldMT-61" d="M 1828 431 
Q 1294 -41 869 -41 
Q 619 -41 453 123 
Q 288 288 288 534 
Q 288 869 575 1136 
Q 863 1403 1828 1847 
L 1828 2141 
Q 1828 2472 1792 2558 
Q 1756 2644 1656 2708 
Q 1556 2772 1431 2772 
Q 1228 2772 1097 2681 
Q 1016 2625 1016 2550 
Q 1016 2484 1103 2388 
Q 1222 2253 1222 2128 
Q 1222 1975 1108 1867 
Q 994 1759 809 1759 
Q 613 1759 480 1878 
Q 347 1997 347 2156 
Q 347 2381 525 2586 
Q 703 2791 1022 2900 
Q 1341 3009 1684 3009 
Q 2100 3009 2342 2832 
Q 2584 2656 2656 2450 
Q 2700 2319 2700 1847 
L 2700 713 
Q 2700 513 2715 461 
Q 2731 409 2762 384 
Q 2794 359 2834 359 
Q 2916 359 3000 475 
L 3094 400 
Q 2938 169 2770 64 
Q 2603 -41 2391 -41 
Q 2141 -41 2000 76 
Q 1859 194 1828 431 
z
M 1828 659 
L 1828 1638 
Q 1450 1416 1266 1163 
Q 1144 994 1144 822 
Q 1144 678 1247 569 
Q 1325 484 1466 484 
Q 1622 484 1828 659 
z
" transform="scale(0.015625)"/>
      <path id="TimesNewRomanPS-BoldMT-74" d="M 1375 3991 
L 1375 2922 
L 2069 2922 
L 2069 2613 
L 1375 2613 
L 1375 809 
Q 1375 556 1398 482 
Q 1422 409 1481 364 
Q 1541 319 1591 319 
Q 1794 319 1975 628 
L 2069 559 
Q 1816 -41 1247 -41 
Q 969 -41 776 114 
Q 584 269 531 459 
Q 500 566 500 1034 
L 500 2613 
L 119 2613 
L 119 2722 
Q 513 3000 789 3306 
Q 1066 3613 1272 3991 
L 1375 3991 
z
" transform="scale(0.015625)"/>
      <path id="TimesNewRomanPS-BoldMT-65" d="M 2691 1566 
L 1088 1566 
Q 1116 984 1397 647 
Q 1613 388 1916 388 
Q 2103 388 2256 492 
Q 2409 597 2584 869 
L 2691 800 
Q 2453 316 2165 114 
Q 1878 -88 1500 -88 
Q 850 -88 516 413 
Q 247 816 247 1413 
Q 247 2144 642 2576 
Q 1038 3009 1569 3009 
Q 2013 3009 2339 2645 
Q 2666 2281 2691 1566 
z
M 1922 1775 
Q 1922 2278 1867 2465 
Q 1813 2653 1697 2750 
Q 1631 2806 1522 2806 
Q 1359 2806 1256 2647 
Q 1072 2369 1072 1884 
L 1072 1775 
L 1922 1775 
z
" transform="scale(0.015625)"/>
      <path id="TimesNewRomanPS-BoldMT-67" d="M 2091 2888 
L 3075 2888 
L 3075 2544 
L 2516 2544 
Q 2669 2391 2728 2266 
Q 2803 2097 2803 1913 
Q 2803 1600 2629 1370 
Q 2456 1141 2157 1011 
Q 1859 881 1628 881 
Q 1609 881 1253 897 
Q 1113 897 1017 805 
Q 922 713 922 584 
Q 922 472 1008 400 
Q 1094 328 1288 328 
L 1828 334 
Q 2484 334 2731 191 
Q 3084 -9 3084 -425 
Q 3084 -691 2921 -908 
Q 2759 -1125 2494 -1228 
Q 2091 -1381 1566 -1381 
Q 1172 -1381 847 -1304 
Q 522 -1228 381 -1092 
Q 241 -956 241 -806 
Q 241 -663 348 -548 
Q 456 -434 750 -356 
Q 344 -156 344 200 
Q 344 416 509 619 
Q 675 822 1034 972 
Q 616 1125 428 1375 
Q 241 1625 241 1953 
Q 241 2381 591 2695 
Q 941 3009 1491 3009 
Q 1781 3009 2091 2888 
z
M 1550 2816 
Q 1369 2816 1244 2633 
Q 1119 2450 1119 1875 
Q 1119 1409 1242 1236 
Q 1366 1063 1534 1063 
Q 1722 1063 1847 1234 
Q 1972 1406 1972 1903 
Q 1972 2463 1831 2666 
Q 1731 2816 1550 2816 
z
M 1366 -431 
Q 1047 -431 944 -484 
Q 766 -581 766 -747 
Q 766 -906 950 -1036 
Q 1134 -1166 1644 -1166 
Q 2078 -1166 2326 -1050 
Q 2575 -934 2575 -725 
Q 2575 -647 2528 -594 
Q 2444 -500 2273 -465 
Q 2103 -431 1366 -431 
z
" transform="scale(0.015625)"/>
      <path id="TimesNewRomanPS-BoldMT-6f" d="M 1594 3009 
Q 1975 3009 2303 2812 
Q 2631 2616 2801 2253 
Q 2972 1891 2972 1459 
Q 2972 838 2656 419 
Q 2275 -88 1603 -88 
Q 944 -88 587 375 
Q 231 838 231 1447 
Q 231 2075 595 2542 
Q 959 3009 1594 3009 
z
M 1606 2788 
Q 1447 2788 1333 2667 
Q 1219 2547 1183 2192 
Q 1147 1838 1147 1206 
Q 1147 872 1191 581 
Q 1225 359 1337 243 
Q 1450 128 1594 128 
Q 1734 128 1828 206 
Q 1950 313 1991 503 
Q 2053 800 2053 1703 
Q 2053 2234 1993 2432 
Q 1934 2631 1819 2722 
Q 1738 2788 1606 2788 
z
" transform="scale(0.015625)"/>
      <path id="TimesNewRomanPS-BoldMT-72" d="M 1428 2922 
L 1428 2259 
Q 1719 2713 1937 2861 
Q 2156 3009 2359 3009 
Q 2534 3009 2639 2901 
Q 2744 2794 2744 2597 
Q 2744 2388 2642 2272 
Q 2541 2156 2397 2156 
Q 2231 2156 2109 2262 
Q 1988 2369 1966 2381 
Q 1934 2400 1894 2400 
Q 1803 2400 1722 2331 
Q 1594 2225 1528 2028 
Q 1428 1725 1428 1359 
L 1428 688 
L 1431 513 
Q 1431 334 1453 284 
Q 1491 200 1564 161 
Q 1638 122 1813 113 
L 1813 0 
L 234 0 
L 234 113 
Q 425 128 492 217 
Q 559 306 559 688 
L 559 2303 
Q 559 2553 534 2622 
Q 503 2709 443 2750 
Q 384 2791 234 2806 
L 234 2922 
L 1428 2922 
z
" transform="scale(0.015625)"/>
      <path id="TimesNewRomanPS-BoldMT-79" d="M 1556 -119 
L 613 2047 
Q 400 2538 298 2650 
Q 197 2763 53 2806 
L 53 2922 
L 1606 2922 
L 1606 2806 
Q 1453 2800 1390 2747 
Q 1328 2694 1328 2619 
Q 1328 2500 1484 2150 
L 1984 1006 
L 2325 1891 
Q 2509 2363 2509 2547 
Q 2509 2663 2432 2731 
Q 2356 2800 2163 2806 
L 2163 2922 
L 3141 2922 
L 3141 2806 
Q 2997 2791 2906 2695 
Q 2816 2600 2603 2047 
L 1769 -119 
Q 1453 -931 1300 -1119 
Q 1084 -1381 759 -1381 
Q 500 -1381 339 -1232 
Q 178 -1084 178 -875 
Q 178 -694 289 -575 
Q 400 -456 563 -456 
Q 719 -456 814 -556 
Q 909 -656 913 -866 
Q 916 -984 941 -1019 
Q 966 -1053 1013 -1053 
Q 1088 -1053 1172 -963 
Q 1297 -831 1466 -363 
L 1556 -119 
z
" transform="scale(0.015625)"/>
      <path id="TimesNewRomanPS-BoldMT-20" transform="scale(0.015625)"/>
      <path id="TimesNewRomanPS-BoldMT-31" d="M 2084 4325 
L 2084 859 
Q 2084 469 2118 361 
Q 2153 253 2262 184 
Q 2372 116 2613 116 
L 2709 116 
L 2709 0 
L 478 0 
L 478 116 
L 591 116 
Q 863 116 978 178 
Q 1094 241 1134 350 
Q 1175 459 1175 859 
L 1175 3056 
Q 1175 3350 1147 3423 
Q 1119 3497 1042 3548 
Q 966 3600 866 3600 
Q 706 3600 478 3500 
L 422 3613 
L 1981 4325 
L 2084 4325 
z
" transform="scale(0.015625)"/>
     </defs>
     <use xlink:href="#TimesNewRomanPS-BoldMT-43"/>
     <use xlink:href="#TimesNewRomanPS-BoldMT-61" x="72.216797"/>
     <use xlink:href="#TimesNewRomanPS-BoldMT-74" x="122.216797"/>
     <use xlink:href="#TimesNewRomanPS-BoldMT-65" x="155.517578"/>
     <use xlink:href="#TimesNewRomanPS-BoldMT-67" x="199.902344"/>
     <use xlink:href="#TimesNewRomanPS-BoldMT-6f" x="249.902344"/>
     <use xlink:href="#TimesNewRomanPS-BoldMT-72" x="299.902344"/>
     <use xlink:href="#TimesNewRomanPS-BoldMT-79" x="344.287109"/>
     <use xlink:href="#TimesNewRomanPS-BoldMT-20" x="394.287109"/>
     <use xlink:href="#TimesNewRomanPS-BoldMT-31" x="419.287109"/>
    </g>
   </g>
   <g id="text_2">
    <!-- 0.9% -->
    <g style="fill: #ffffff" transform="translate(105.223765 70.518347) scale(0.1 -0.1)">
     <defs>
      <path id="TimesNewRomanPS-BoldMT-30" d="M 2966 2119 
Q 2966 1484 2788 934 
Q 2681 597 2501 381 
Q 2322 166 2094 39 
Q 1866 -88 1597 -88 
Q 1291 -88 1044 68 
Q 797 225 606 516 
Q 469 728 366 1081 
Q 231 1559 231 2069 
Q 231 2759 425 3338 
Q 584 3816 909 4070 
Q 1234 4325 1597 4325 
Q 1966 4325 2286 4073 
Q 2606 3822 2756 3397 
Q 2966 2813 2966 2119 
z
M 2003 2125 
Q 2003 3238 1991 3422 
Q 1959 3856 1841 4009 
Q 1763 4109 1588 4109 
Q 1453 4109 1375 4034 
Q 1259 3925 1218 3648 
Q 1178 3372 1178 1719 
Q 1178 819 1241 513 
Q 1288 291 1375 216 
Q 1463 141 1606 141 
Q 1763 141 1841 241 
Q 1972 416 1991 781 
L 2003 2125 
z
" transform="scale(0.015625)"/>
      <path id="TimesNewRomanPS-BoldMT-2e" d="M 800 963 
Q 1019 963 1170 809 
Q 1322 656 1322 441 
Q 1322 225 1169 73 
Q 1016 -78 800 -78 
Q 584 -78 432 73 
Q 281 225 281 441 
Q 281 656 432 809 
Q 584 963 800 963 
z
" transform="scale(0.015625)"/>
      <path id="TimesNewRomanPS-BoldMT-39" d="M 197 -88 
L 197 0 
Q 716 119 1077 350 
Q 1438 581 1648 922 
Q 1859 1263 1944 1706 
Q 1750 1606 1614 1567 
Q 1478 1528 1328 1528 
Q 847 1528 526 1875 
Q 206 2222 206 2825 
Q 206 3244 379 3592 
Q 553 3941 875 4133 
Q 1197 4325 1544 4325 
Q 1916 4325 2247 4112 
Q 2578 3900 2775 3497 
Q 2972 3094 2972 2578 
Q 2972 1909 2651 1296 
Q 2331 684 1697 314 
Q 1063 -56 197 -88 
z
M 1991 1969 
Q 2022 2319 2022 2584 
Q 2022 3153 1891 3644 
Q 1816 3916 1669 4044 
Q 1591 4113 1466 4113 
Q 1309 4113 1222 3978 
Q 1100 3794 1100 3275 
Q 1100 2409 1306 2081 
Q 1441 1869 1669 1869 
Q 1791 1869 1991 1969 
z
" transform="scale(0.015625)"/>
      <path id="TimesNewRomanPS-BoldMT-25" d="M 4916 4334 
L 1906 -178 
L 1488 -178 
L 4494 4334 
L 4916 4334 
z
M 1494 4334 
Q 1938 4334 2242 4020 
Q 2547 3706 2547 3209 
Q 2547 2700 2240 2383 
Q 1934 2066 1481 2066 
Q 1034 2066 739 2372 
Q 444 2678 444 3178 
Q 444 3694 747 4014 
Q 1050 4334 1494 4334 
z
M 1494 4169 
Q 1425 4169 1381 4128 
Q 1303 4056 1264 3879 
Q 1225 3703 1225 3150 
Q 1225 2709 1278 2469 
Q 1309 2331 1384 2263 
Q 1431 2222 1494 2222 
Q 1563 2222 1603 2259 
Q 1675 2325 1709 2472 
Q 1763 2709 1763 3138 
Q 1763 3663 1713 3897 
Q 1678 4059 1600 4134 
Q 1563 4169 1494 4169 
z
M 4894 2097 
Q 5347 2097 5651 1786 
Q 5956 1475 5956 972 
Q 5956 463 5647 144 
Q 5338 -175 4900 -175 
Q 4466 -175 4161 144 
Q 3856 463 3856 963 
Q 3856 1466 4153 1781 
Q 4450 2097 4894 2097 
z
M 4903 1934 
Q 4841 1934 4797 1897 
Q 4722 1828 4681 1658 
Q 4641 1488 4641 1006 
Q 4641 494 4688 269 
Q 4722 109 4803 38 
Q 4844 0 4909 0 
Q 4969 0 5006 34 
Q 5084 106 5122 269 
Q 5175 497 5175 959 
Q 5175 1447 5125 1672 
Q 5088 1834 5013 1900 
Q 4975 1934 4903 1934 
z
" transform="scale(0.015625)"/>
     </defs>
     <use xlink:href="#TimesNewRomanPS-BoldMT-30"/>
     <use xlink:href="#TimesNewRomanPS-BoldMT-2e" x="50"/>
     <use xlink:href="#TimesNewRomanPS-BoldMT-39" x="75"/>
     <use xlink:href="#TimesNewRomanPS-BoldMT-25" x="125"/>
    </g>
   </g>
   <g id="text_3">
    <!-- Category 2 -->
    <g transform="translate(61.734258 20.254573) scale(0.1 -0.1)">
     <defs>
      <path id="TimesNewRomanPS-BoldMT-32" d="M 2650 0 
L 156 0 
L 156 69 
Q 1303 1434 1548 1906 
Q 1794 2378 1794 2828 
Q 1794 3156 1591 3373 
Q 1388 3591 1094 3591 
Q 613 3591 347 3109 
L 231 3150 
Q 400 3750 744 4037 
Q 1088 4325 1538 4325 
Q 1859 4325 2125 4175 
Q 2391 4025 2541 3764 
Q 2691 3503 2691 3275 
Q 2691 2859 2459 2431 
Q 2144 1853 1081 819 
L 1997 819 
Q 2334 819 2436 847 
Q 2538 875 2603 942 
Q 2669 1009 2775 1225 
L 2888 1225 
L 2650 0 
z
" transform="scale(0.015625)"/>
     </defs>
     <use xlink:href="#TimesNewRomanPS-BoldMT-43"/>
     <use xlink:href="#TimesNewRomanPS-BoldMT-61" x="72.216797"/>
     <use xlink:href="#TimesNewRomanPS-BoldMT-74" x="122.216797"/>
     <use xlink:href="#TimesNewRomanPS-BoldMT-65" x="155.517578"/>
     <use xlink:href="#TimesNewRomanPS-BoldMT-67" x="199.902344"/>
     <use xlink:href="#TimesNewRomanPS-BoldMT-6f" x="249.902344"/>
     <use xlink:href="#TimesNewRomanPS-BoldMT-72" x="299.902344"/>
     <use xlink:href="#TimesNewRomanPS-BoldMT-79" x="344.287109"/>
     <use xlink:href="#TimesNewRomanPS-BoldMT-20" x="394.287109"/>
     <use xlink:href="#TimesNewRomanPS-BoldMT-32" x="419.287109"/>
    </g>
   </g>
   <g id="text_4">
    <!-- 0.9% -->
    <g style="fill: #ffffff" transform="translate(101.753785 70.716767) scale(0.1 -0.1)">
     <use xlink:href="#TimesNewRomanPS-BoldMT-30"/>
     <use xlink:href="#TimesNewRomanPS-BoldMT-2e" x="50"/>
     <use xlink:href="#TimesNewRomanPS-BoldMT-39" x="75"/>
     <use xlink:href="#TimesNewRomanPS-BoldMT-25" x="125"/>
    </g>
   </g>
   <g id="text_5">
    <!-- Category 3 -->
    <g transform="translate(55.403784 20.980927) scale(0.1 -0.1)">
     <defs>
      <path id="TimesNewRomanPS-BoldMT-33" d="M 947 2125 
L 947 2234 
Q 1303 2338 1440 2427 
Q 1578 2516 1678 2698 
Q 1778 2881 1778 3069 
Q 1778 3328 1589 3514 
Q 1400 3700 1119 3700 
Q 681 3700 375 3238 
L 259 3278 
Q 484 3800 836 4062 
Q 1188 4325 1619 4325 
Q 2059 4325 2345 4056 
Q 2631 3788 2631 3428 
Q 2631 3194 2498 2976 
Q 2366 2759 2081 2594 
Q 2447 2416 2639 2155 
Q 2831 1894 2831 1500 
Q 2831 838 2351 373 
Q 1872 -91 1066 -91 
Q 528 -91 281 88 
Q 103 213 103 409 
Q 103 553 206 654 
Q 309 756 444 756 
Q 547 756 638 713 
Q 688 688 992 439 
Q 1297 191 1563 191 
Q 1794 191 1959 373 
Q 2125 556 2125 838 
Q 2125 1266 1825 1627 
Q 1525 1988 947 2125 
z
" transform="scale(0.015625)"/>
     </defs>
     <use xlink:href="#TimesNewRomanPS-BoldMT-43"/>
     <use xlink:href="#TimesNewRomanPS-BoldMT-61" x="72.216797"/>
     <use xlink:href="#TimesNewRomanPS-BoldMT-74" x="122.216797"/>
     <use xlink:href="#TimesNewRomanPS-BoldMT-65" x="155.517578"/>
     <use xlink:href="#TimesNewRomanPS-BoldMT-67" x="199.902344"/>
     <use xlink:href="#TimesNewRomanPS-BoldMT-6f" x="249.902344"/>
     <use xlink:href="#TimesNewRomanPS-BoldMT-72" x="299.902344"/>
     <use xlink:href="#TimesNewRomanPS-BoldMT-79" x="344.287109"/>
     <use xlink:href="#TimesNewRomanPS-BoldMT-20" x="394.287109"/>
     <use xlink:href="#TimesNewRomanPS-BoldMT-33" x="419.287109"/>
    </g>
   </g>
   <g id="text_6">
    <!-- 0.9% -->
    <g style="fill: #ffffff" transform="translate(98.300799 71.112961) scale(0.1 -0.1)">
     <use xlink:href="#TimesNewRomanPS-BoldMT-30"/>
     <use xlink:href="#TimesNewRomanPS-BoldMT-2e" x="50"/>
     <use xlink:href="#TimesNewRomanPS-BoldMT-39" x="75"/>
     <use xlink:href="#TimesNewRomanPS-BoldMT-25" x="125"/>
    </g>
   </g>
   <g id="text_7">
    <!-- Category 4 -->
    <g transform="translate(49.125087 22.067497) scale(0.1 -0.1)">
     <defs>
      <path id="TimesNewRomanPS-BoldMT-34" d="M 159 1597 
L 2172 4325 
L 2553 4325 
L 2553 1597 
L 2941 1597 
L 2941 950 
L 2553 950 
L 2553 0 
L 1694 0 
L 1694 950 
L 159 950 
L 159 1597 
z
M 463 1597 
L 1694 1597 
L 1694 3269 
L 463 1597 
z
" transform="scale(0.015625)"/>
     </defs>
     <use xlink:href="#TimesNewRomanPS-BoldMT-43"/>
     <use xlink:href="#TimesNewRomanPS-BoldMT-61" x="72.216797"/>
     <use xlink:href="#TimesNewRomanPS-BoldMT-74" x="122.216797"/>
     <use xlink:href="#TimesNewRomanPS-BoldMT-65" x="155.517578"/>
     <use xlink:href="#TimesNewRomanPS-BoldMT-67" x="199.902344"/>
     <use xlink:href="#TimesNewRomanPS-BoldMT-6f" x="249.902344"/>
     <use xlink:href="#TimesNewRomanPS-BoldMT-72" x="299.902344"/>
     <use xlink:href="#TimesNewRomanPS-BoldMT-79" x="344.287109"/>
     <use xlink:href="#TimesNewRomanPS-BoldMT-20" x="394.287109"/>
     <use xlink:href="#TimesNewRomanPS-BoldMT-34" x="419.287109"/>
    </g>
   </g>
   <g id="text_8">
    <!-- 0.9% -->
    <g style="fill: #ffffff" transform="translate(94.876055 71.705635) scale(0.1 -0.1)">
     <use xlink:href="#TimesNewRomanPS-BoldMT-30"/>
     <use xlink:href="#TimesNewRomanPS-BoldMT-2e" x="50"/>
     <use xlink:href="#TimesNewRomanPS-BoldMT-39" x="75"/>
     <use xlink:href="#TimesNewRomanPS-BoldMT-25" x="125"/>
    </g>
   </g>
   <g id="text_9">
    <!-- Category 5 -->
    <g transform="translate(42.918662 23.510738) scale(0.1 -0.1)">
     <defs>
      <path id="TimesNewRomanPS-BoldMT-35" d="M 975 4238 
L 2959 4238 
L 2644 3431 
L 975 3431 
L 816 3009 
Q 1894 2969 2475 2472 
Q 2953 2063 2953 1453 
Q 2953 1063 2731 689 
Q 2509 316 2106 114 
Q 1703 -88 1222 -88 
Q 703 -88 425 106 
Q 231 244 231 419 
Q 231 553 332 656 
Q 434 759 569 759 
Q 691 759 816 709 
Q 941 659 1244 447 
Q 1434 316 1572 266 
Q 1669 228 1791 228 
Q 2047 228 2226 415 
Q 2406 603 2406 866 
Q 2406 1416 1856 1759 
Q 1306 2103 469 2103 
Q 384 2103 216 2100 
L 975 4238 
z
" transform="scale(0.015625)"/>
     </defs>
     <use xlink:href="#TimesNewRomanPS-BoldMT-43"/>
     <use xlink:href="#TimesNewRomanPS-BoldMT-61" x="72.216797"/>
     <use xlink:href="#TimesNewRomanPS-BoldMT-74" x="122.216797"/>
     <use xlink:href="#TimesNewRomanPS-BoldMT-65" x="155.517578"/>
     <use xlink:href="#TimesNewRomanPS-BoldMT-67" x="199.902344"/>
     <use xlink:href="#TimesNewRomanPS-BoldMT-6f" x="249.902344"/>
     <use xlink:href="#TimesNewRomanPS-BoldMT-72" x="299.902344"/>
     <use xlink:href="#TimesNewRomanPS-BoldMT-79" x="344.287109"/>
     <use xlink:href="#TimesNewRomanPS-BoldMT-20" x="394.287109"/>
     <use xlink:href="#TimesNewRomanPS-BoldMT-35" x="419.287109"/>
    </g>
   </g>
   <g id="text_10">
    <!-- 0.9% -->
    <g style="fill: #ffffff" transform="translate(91.490732 72.492858) scale(0.1 -0.1)">
     <use xlink:href="#TimesNewRomanPS-BoldMT-30"/>
     <use xlink:href="#TimesNewRomanPS-BoldMT-2e" x="50"/>
     <use xlink:href="#TimesNewRomanPS-BoldMT-39" x="75"/>
     <use xlink:href="#TimesNewRomanPS-BoldMT-25" x="125"/>
    </g>
   </g>
   <g id="text_11">
    <!-- Category 6 -->
    <g transform="translate(36.804764 25.305939) scale(0.1 -0.1)">
     <defs>
      <path id="TimesNewRomanPS-BoldMT-36" d="M 3006 4325 
L 3006 4238 
Q 2441 4094 2098 3867 
Q 1756 3641 1557 3317 
Q 1359 2994 1250 2516 
Q 1388 2609 1478 2638 
Q 1681 2700 1888 2700 
Q 2363 2700 2680 2354 
Q 2997 2009 2997 1413 
Q 2997 994 2825 644 
Q 2653 294 2337 103 
Q 2022 -88 1663 -88 
Q 1272 -88 940 126 
Q 609 341 423 753 
Q 238 1166 238 1650 
Q 238 2363 580 2977 
Q 922 3591 1551 3955 
Q 2181 4319 3006 4325 
z
M 1209 2263 
Q 1184 1831 1184 1631 
Q 1184 1200 1267 797 
Q 1350 394 1494 231 
Q 1597 116 1738 116 
Q 1881 116 1993 283 
Q 2106 450 2106 963 
Q 2106 1825 1897 2153 
Q 1763 2366 1534 2366 
Q 1409 2366 1209 2263 
z
" transform="scale(0.015625)"/>
     </defs>
     <use xlink:href="#TimesNewRomanPS-BoldMT-43"/>
     <use xlink:href="#TimesNewRomanPS-BoldMT-61" x="72.216797"/>
     <use xlink:href="#TimesNewRomanPS-BoldMT-74" x="122.216797"/>
     <use xlink:href="#TimesNewRomanPS-BoldMT-65" x="155.517578"/>
     <use xlink:href="#TimesNewRomanPS-BoldMT-67" x="199.902344"/>
     <use xlink:href="#TimesNewRomanPS-BoldMT-6f" x="249.902344"/>
     <use xlink:href="#TimesNewRomanPS-BoldMT-72" x="299.902344"/>
     <use xlink:href="#TimesNewRomanPS-BoldMT-79" x="344.287109"/>
     <use xlink:href="#TimesNewRomanPS-BoldMT-20" x="394.287109"/>
     <use xlink:href="#TimesNewRomanPS-BoldMT-36" x="419.287109"/>
    </g>
   </g>
   <g id="text_12">
    <!-- 0.9% -->
    <g style="fill: #ffffff" transform="translate(88.155879 73.472058) scale(0.1 -0.1)">
     <use xlink:href="#TimesNewRomanPS-BoldMT-30"/>
     <use xlink:href="#TimesNewRomanPS-BoldMT-2e" x="50"/>
     <use xlink:href="#TimesNewRomanPS-BoldMT-39" x="75"/>
     <use xlink:href="#TimesNewRomanPS-BoldMT-25" x="125"/>
    </g>
   </g>
   <g id="text_13">
    <!-- Category 7 -->
    <g transform="translate(30.80331 27.447251) scale(0.1 -0.1)">
     <defs>
      <path id="TimesNewRomanPS-BoldMT-37" d="M 1134 -88 
L 2288 3409 
L 1409 3409 
Q 894 3409 634 3275 
Q 453 3181 334 2922 
L 216 2922 
L 522 4238 
L 3047 4238 
L 1625 -88 
L 1134 -88 
z
" transform="scale(0.015625)"/>
     </defs>
     <use xlink:href="#TimesNewRomanPS-BoldMT-43"/>
     <use xlink:href="#TimesNewRomanPS-BoldMT-61" x="72.216797"/>
     <use xlink:href="#TimesNewRomanPS-BoldMT-74" x="122.216797"/>
     <use xlink:href="#TimesNewRomanPS-BoldMT-65" x="155.517578"/>
     <use xlink:href="#TimesNewRomanPS-BoldMT-67" x="199.902344"/>
     <use xlink:href="#TimesNewRomanPS-BoldMT-6f" x="249.902344"/>
     <use xlink:href="#TimesNewRomanPS-BoldMT-72" x="299.902344"/>
     <use xlink:href="#TimesNewRomanPS-BoldMT-79" x="344.287109"/>
     <use xlink:href="#TimesNewRomanPS-BoldMT-20" x="394.287109"/>
     <use xlink:href="#TimesNewRomanPS-BoldMT-37" x="419.287109"/>
    </g>
   </g>
   <g id="text_14">
    <!-- 0.9% -->
    <g style="fill: #ffffff" transform="translate(84.882358 74.640047) scale(0.1 -0.1)">
     <use xlink:href="#TimesNewRomanPS-BoldMT-30"/>
     <use xlink:href="#TimesNewRomanPS-BoldMT-2e" x="50"/>
     <use xlink:href="#TimesNewRomanPS-BoldMT-39" x="75"/>
     <use xlink:href="#TimesNewRomanPS-BoldMT-25" x="125"/>
    </g>
   </g>
   <g id="text_15">
    <!-- Category 8 -->
    <g transform="translate(24.933889 29.927687) scale(0.1 -0.1)">
     <defs>
      <path id="TimesNewRomanPS-BoldMT-38" d="M 2181 2394 
Q 2628 2066 2801 1783 
Q 2975 1500 2975 1134 
Q 2975 622 2589 267 
Q 2203 -88 1541 -88 
Q 913 -88 569 221 
Q 225 531 225 978 
Q 225 1319 423 1575 
Q 622 1831 1084 2044 
Q 581 2428 439 2672 
Q 297 2916 297 3238 
Q 297 3663 658 3986 
Q 1019 4309 1647 4309 
Q 2253 4309 2579 4023 
Q 2906 3738 2906 3338 
Q 2906 3038 2729 2808 
Q 2553 2578 2181 2394 
z
M 1944 2553 
Q 2059 2709 2115 2903 
Q 2172 3097 2172 3328 
Q 2172 3734 1997 3950 
Q 1866 4116 1634 4116 
Q 1425 4116 1278 3964 
Q 1131 3813 1131 3588 
Q 1131 3359 1295 3114 
Q 1459 2869 1944 2553 
z
M 1319 1894 
Q 1222 1806 1181 1734 
Q 1119 1625 1069 1415 
Q 1019 1206 1019 978 
Q 1019 684 1094 486 
Q 1169 288 1308 200 
Q 1447 113 1594 113 
Q 1822 113 1978 280 
Q 2134 447 2134 738 
Q 2134 1344 1319 1894 
z
" transform="scale(0.015625)"/>
     </defs>
     <use xlink:href="#TimesNewRomanPS-BoldMT-43"/>
     <use xlink:href="#TimesNewRomanPS-BoldMT-61" x="72.216797"/>
     <use xlink:href="#TimesNewRomanPS-BoldMT-74" x="122.216797"/>
     <use xlink:href="#TimesNewRomanPS-BoldMT-65" x="155.517578"/>
     <use xlink:href="#TimesNewRomanPS-BoldMT-67" x="199.902344"/>
     <use xlink:href="#TimesNewRomanPS-BoldMT-6f" x="249.902344"/>
     <use xlink:href="#TimesNewRomanPS-BoldMT-72" x="299.902344"/>
     <use xlink:href="#TimesNewRomanPS-BoldMT-79" x="344.287109"/>
     <use xlink:href="#TimesNewRomanPS-BoldMT-20" x="394.287109"/>
     <use xlink:href="#TimesNewRomanPS-BoldMT-38" x="419.287109"/>
    </g>
   </g>
   <g id="text_16">
    <!-- 0.9% -->
    <g style="fill: #ffffff" transform="translate(81.680856 75.993012) scale(0.1 -0.1)">
     <use xlink:href="#TimesNewRomanPS-BoldMT-30"/>
     <use xlink:href="#TimesNewRomanPS-BoldMT-2e" x="50"/>
     <use xlink:href="#TimesNewRomanPS-BoldMT-39" x="75"/>
     <use xlink:href="#TimesNewRomanPS-BoldMT-25" x="125"/>
    </g>
   </g>
   <g id="text_17">
    <!-- Category 9 -->
    <g transform="translate(19.215657 32.739149) scale(0.1 -0.1)">
     <use xlink:href="#TimesNewRomanPS-BoldMT-43"/>
     <use xlink:href="#TimesNewRomanPS-BoldMT-61" x="72.216797"/>
     <use xlink:href="#TimesNewRomanPS-BoldMT-74" x="122.216797"/>
     <use xlink:href="#TimesNewRomanPS-BoldMT-65" x="155.517578"/>
     <use xlink:href="#TimesNewRomanPS-BoldMT-67" x="199.902344"/>
     <use xlink:href="#TimesNewRomanPS-BoldMT-6f" x="249.902344"/>
     <use xlink:href="#TimesNewRomanPS-BoldMT-72" x="299.902344"/>
     <use xlink:href="#TimesNewRomanPS-BoldMT-79" x="344.287109"/>
     <use xlink:href="#TimesNewRomanPS-BoldMT-20" x="394.287109"/>
     <use xlink:href="#TimesNewRomanPS-BoldMT-39" x="419.287109"/>
    </g>
   </g>
   <g id="text_18">
    <!-- 0.9% -->
    <g style="fill: #ffffff" transform="translate(78.56182 77.526537) scale(0.1 -0.1)">
     <use xlink:href="#TimesNewRomanPS-BoldMT-30"/>
     <use xlink:href="#TimesNewRomanPS-BoldMT-2e" x="50"/>
     <use xlink:href="#TimesNewRomanPS-BoldMT-39" x="75"/>
     <use xlink:href="#TimesNewRomanPS-BoldMT-25" x="125"/>
    </g>
   </g>
   <g id="text_19">
    <!-- Category 10 -->
    <g transform="translate(8.667242 35.87248) scale(0.1 -0.1)">
     <use xlink:href="#TimesNewRomanPS-BoldMT-43"/>
     <use xlink:href="#TimesNewRomanPS-BoldMT-61" x="72.216797"/>
     <use xlink:href="#TimesNewRomanPS-BoldMT-74" x="122.216797"/>
     <use xlink:href="#TimesNewRomanPS-BoldMT-65" x="155.517578"/>
     <use xlink:href="#TimesNewRomanPS-BoldMT-67" x="199.902344"/>
     <use xlink:href="#TimesNewRomanPS-BoldMT-6f" x="249.902344"/>
     <use xlink:href="#TimesNewRomanPS-BoldMT-72" x="299.902344"/>
     <use xlink:href="#TimesNewRomanPS-BoldMT-79" x="344.287109"/>
     <use xlink:href="#TimesNewRomanPS-BoldMT-20" x="394.287109"/>
     <use xlink:href="#TimesNewRomanPS-BoldMT-31" x="419.287109"/>
     <use xlink:href="#TimesNewRomanPS-BoldMT-30" x="469.287109"/>
    </g>
   </g>
   <g id="text_20">
    <!-- 0.9% -->
    <g style="fill: #ffffff" transform="translate(75.535412 79.235626) scale(0.1 -0.1)">
     <use xlink:href="#TimesNewRomanPS-BoldMT-30"/>
     <use xlink:href="#TimesNewRomanPS-BoldMT-2e" x="50"/>
     <use xlink:href="#TimesNewRomanPS-BoldMT-39" x="75"/>
     <use xlink:href="#TimesNewRomanPS-BoldMT-25" x="125"/>
    </g>
   </g>
   <g id="text_21">
    <!-- Category 11 -->
    <g transform="translate(149.644617 238.466865) scale(0.1 -0.1)">
     <use xlink:href="#TimesNewRomanPS-BoldMT-43"/>
     <use xlink:href="#TimesNewRomanPS-BoldMT-61" x="72.216797"/>
     <use xlink:href="#TimesNewRomanPS-BoldMT-74" x="122.216797"/>
     <use xlink:href="#TimesNewRomanPS-BoldMT-65" x="155.517578"/>
     <use xlink:href="#TimesNewRomanPS-BoldMT-67" x="199.902344"/>
     <use xlink:href="#TimesNewRomanPS-BoldMT-6f" x="249.902344"/>
     <use xlink:href="#TimesNewRomanPS-BoldMT-72" x="299.902344"/>
     <use xlink:href="#TimesNewRomanPS-BoldMT-79" x="344.287109"/>
     <use xlink:href="#TimesNewRomanPS-BoldMT-20" x="394.287109"/>
     <use xlink:href="#TimesNewRomanPS-BoldMT-31" x="419.287109"/>
     <use xlink:href="#TimesNewRomanPS-BoldMT-31" x="463.787109"/>
    </g>
   </g>
   <g id="text_22">
    <!-- 90.9% -->
    <g style="fill: #ffffff" transform="translate(121.606878 189.741654) scale(0.1 -0.1)">
     <use xlink:href="#TimesNewRomanPS-BoldMT-39"/>
     <use xlink:href="#TimesNewRomanPS-BoldMT-30" x="50"/>
     <use xlink:href="#TimesNewRomanPS-BoldMT-2e" x="100"/>
     <use xlink:href="#TimesNewRomanPS-BoldMT-39" x="125"/>
     <use xlink:href="#TimesNewRomanPS-BoldMT-25" x="175"/>
    </g>
   </g>
   <g id="text_23">
    <!-- Data Source Category Distribution -->
    <g transform="translate(28.826583 15.33375) scale(0.12 -0.12)">
     <defs>
      <path id="TimesNewRomanPS-BoldMT-44" d="M 84 0 
L 84 116 
L 225 116 
Q 409 116 507 173 
Q 606 231 653 331 
Q 681 397 681 725 
L 681 3513 
Q 681 3838 647 3919 
Q 613 4000 508 4061 
Q 403 4122 225 4122 
L 84 4122 
L 84 4238 
L 1981 4238 
Q 2741 4238 3203 4031 
Q 3769 3778 4061 3265 
Q 4353 2753 4353 2106 
Q 4353 1659 4209 1282 
Q 4066 906 3837 661 
Q 3609 416 3311 267 
Q 3013 119 2581 38 
Q 2391 0 1981 0 
L 84 0 
z
M 1700 3997 
L 1700 691 
Q 1700 428 1725 368 
Q 1750 309 1809 278 
Q 1894 231 2053 231 
Q 2575 231 2850 588 
Q 3225 1069 3225 2081 
Q 3225 2897 2969 3384 
Q 2766 3766 2447 3903 
Q 2222 4000 1700 3997 
z
" transform="scale(0.015625)"/>
      <path id="TimesNewRomanPS-BoldMT-53" d="M 3006 4334 
L 3041 2922 
L 2913 2922 
Q 2822 3453 2467 3776 
Q 2113 4100 1700 4100 
Q 1381 4100 1195 3929 
Q 1009 3759 1009 3538 
Q 1009 3397 1075 3288 
Q 1166 3141 1366 2997 
Q 1513 2894 2044 2631 
Q 2788 2266 3047 1941 
Q 3303 1616 3303 1197 
Q 3303 666 2889 283 
Q 2475 -100 1838 -100 
Q 1638 -100 1459 -59 
Q 1281 -19 1013 94 
Q 863 156 766 156 
Q 684 156 593 93 
Q 503 31 447 -97 
L 331 -97 
L 331 1503 
L 447 1503 
Q 584 828 976 473 
Q 1369 119 1822 119 
Q 2172 119 2380 309 
Q 2588 500 2588 753 
Q 2588 903 2508 1043 
Q 2428 1184 2265 1311 
Q 2103 1438 1691 1641 
Q 1113 1925 859 2125 
Q 606 2325 470 2572 
Q 334 2819 334 3116 
Q 334 3622 706 3978 
Q 1078 4334 1644 4334 
Q 1850 4334 2044 4284 
Q 2191 4247 2402 4145 
Q 2613 4044 2697 4044 
Q 2778 4044 2825 4094 
Q 2872 4144 2913 4334 
L 3006 4334 
z
" transform="scale(0.015625)"/>
      <path id="TimesNewRomanPS-BoldMT-75" d="M 3038 2922 
L 3038 634 
Q 3038 300 3100 217 
Q 3163 134 3353 113 
L 3353 0 
L 2163 0 
L 2163 391 
Q 1953 141 1743 26 
Q 1534 -88 1275 -88 
Q 1028 -88 836 64 
Q 644 216 578 419 
Q 513 622 513 1128 
L 513 2288 
Q 513 2619 452 2700 
Q 391 2781 197 2806 
L 197 2922 
L 1388 2922 
L 1388 925 
Q 1388 613 1417 522 
Q 1447 431 1511 384 
Q 1575 338 1659 338 
Q 1772 338 1863 397 
Q 1988 478 2163 725 
L 2163 2288 
Q 2163 2619 2102 2700 
Q 2041 2781 1847 2806 
L 1847 2922 
L 3038 2922 
z
" transform="scale(0.015625)"/>
      <path id="TimesNewRomanPS-BoldMT-63" d="M 2600 753 
L 2697 678 
Q 2491 291 2183 101 
Q 1875 -88 1528 -88 
Q 944 -88 594 353 
Q 244 794 244 1413 
Q 244 2009 563 2463 
Q 947 3009 1622 3009 
Q 2075 3009 2342 2781 
Q 2609 2553 2609 2272 
Q 2609 2094 2501 1987 
Q 2394 1881 2219 1881 
Q 2034 1881 1914 2003 
Q 1794 2125 1766 2438 
Q 1747 2634 1675 2713 
Q 1603 2791 1506 2791 
Q 1356 2791 1250 2631 
Q 1088 2391 1088 1894 
Q 1088 1481 1219 1104 
Q 1350 728 1578 544 
Q 1750 409 1984 409 
Q 2138 409 2275 481 
Q 2413 553 2600 753 
z
" transform="scale(0.015625)"/>
      <path id="TimesNewRomanPS-BoldMT-69" d="M 919 4338 
Q 1122 4338 1262 4195 
Q 1403 4053 1403 3853 
Q 1403 3653 1261 3512 
Q 1119 3372 919 3372 
Q 719 3372 578 3512 
Q 438 3653 438 3853 
Q 438 4053 578 4195 
Q 719 4338 919 4338 
z
M 1356 2922 
L 1356 606 
Q 1356 297 1428 211 
Q 1500 125 1709 113 
L 1709 0 
L 131 0 
L 131 113 
Q 325 119 419 225 
Q 481 297 481 606 
L 481 2313 
Q 481 2622 409 2708 
Q 338 2794 131 2806 
L 131 2922 
L 1356 2922 
z
" transform="scale(0.015625)"/>
      <path id="TimesNewRomanPS-BoldMT-73" d="M 2063 3003 
L 2109 2006 
L 2003 2006 
Q 1813 2450 1608 2612 
Q 1403 2775 1200 2775 
Q 1072 2775 981 2689 
Q 891 2603 891 2491 
Q 891 2406 953 2328 
Q 1053 2200 1512 1889 
Q 1972 1578 2117 1361 
Q 2263 1144 2263 875 
Q 2263 631 2141 397 
Q 2019 163 1797 37 
Q 1575 -88 1306 -88 
Q 1097 -88 747 44 
Q 653 78 619 78 
Q 516 78 447 -78 
L 344 -78 
L 294 972 
L 400 972 
Q 541 559 786 353 
Q 1031 147 1250 147 
Q 1400 147 1495 239 
Q 1591 331 1591 463 
Q 1591 613 1497 722 
Q 1403 831 1078 1053 
Q 600 1384 459 1559 
Q 253 1816 253 2125 
Q 253 2463 486 2736 
Q 719 3009 1159 3009 
Q 1397 3009 1619 2894 
Q 1703 2847 1756 2847 
Q 1813 2847 1847 2870 
Q 1881 2894 1956 3003 
L 2063 3003 
z
" transform="scale(0.015625)"/>
      <path id="TimesNewRomanPS-BoldMT-62" d="M 1347 4238 
L 1347 2628 
Q 1716 3009 2153 3009 
Q 2453 3009 2718 2832 
Q 2984 2656 3134 2331 
Q 3284 2006 3284 1581 
Q 3284 1103 3093 712 
Q 2903 322 2584 117 
Q 2266 -88 1856 -88 
Q 1619 -88 1434 -12 
Q 1250 63 1072 231 
L 588 -84 
L 481 -84 
L 481 3631 
Q 481 3884 459 3944 
Q 428 4031 361 4073 
Q 294 4116 134 4122 
L 134 4238 
L 1347 4238 
z
M 1347 2350 
L 1347 1050 
Q 1347 653 1366 544 
Q 1397 359 1515 245 
Q 1634 131 1819 131 
Q 1978 131 2092 222 
Q 2206 313 2282 581 
Q 2359 850 2359 1550 
Q 2359 2222 2191 2472 
Q 2069 2653 1863 2653 
Q 1594 2653 1347 2350 
z
" transform="scale(0.015625)"/>
      <path id="TimesNewRomanPS-BoldMT-6e" d="M 1409 2922 
L 1409 2544 
Q 1634 2788 1840 2898 
Q 2047 3009 2284 3009 
Q 2569 3009 2756 2851 
Q 2944 2694 3006 2459 
Q 3056 2281 3056 1775 
L 3056 638 
Q 3056 300 3117 217 
Q 3178 134 3372 113 
L 3372 0 
L 1894 0 
L 1894 113 
Q 2059 134 2131 250 
Q 2181 328 2181 638 
L 2181 1938 
Q 2181 2297 2153 2390 
Q 2125 2484 2058 2536 
Q 1991 2588 1909 2588 
Q 1641 2588 1409 2203 
L 1409 638 
Q 1409 309 1470 221 
Q 1531 134 1697 113 
L 1697 0 
L 219 0 
L 219 113 
Q 403 131 481 231 
Q 534 300 534 638 
L 534 2288 
Q 534 2619 473 2700 
Q 413 2781 219 2806 
L 219 2922 
L 1409 2922 
z
" transform="scale(0.015625)"/>
     </defs>
     <use xlink:href="#TimesNewRomanPS-BoldMT-44"/>
     <use xlink:href="#TimesNewRomanPS-BoldMT-61" x="72.216797"/>
     <use xlink:href="#TimesNewRomanPS-BoldMT-74" x="122.216797"/>
     <use xlink:href="#TimesNewRomanPS-BoldMT-61" x="155.517578"/>
     <use xlink:href="#TimesNewRomanPS-BoldMT-20" x="205.517578"/>
     <use xlink:href="#TimesNewRomanPS-BoldMT-53" x="230.517578"/>
     <use xlink:href="#TimesNewRomanPS-BoldMT-6f" x="286.132812"/>
     <use xlink:href="#TimesNewRomanPS-BoldMT-75" x="336.132812"/>
     <use xlink:href="#TimesNewRomanPS-BoldMT-72" x="391.748047"/>
     <use xlink:href="#TimesNewRomanPS-BoldMT-63" x="434.382812"/>
     <use xlink:href="#TimesNewRomanPS-BoldMT-65" x="478.767578"/>
     <use xlink:href="#TimesNewRomanPS-BoldMT-20" x="523.152344"/>
     <use xlink:href="#TimesNewRomanPS-BoldMT-43" x="548.152344"/>
     <use xlink:href="#TimesNewRomanPS-BoldMT-61" x="620.369141"/>
     <use xlink:href="#TimesNewRomanPS-BoldMT-74" x="670.369141"/>
     <use xlink:href="#TimesNewRomanPS-BoldMT-65" x="703.669922"/>
     <use xlink:href="#TimesNewRomanPS-BoldMT-67" x="748.054688"/>
     <use xlink:href="#TimesNewRomanPS-BoldMT-6f" x="798.054688"/>
     <use xlink:href="#TimesNewRomanPS-BoldMT-72" x="848.054688"/>
     <use xlink:href="#TimesNewRomanPS-BoldMT-79" x="892.439453"/>
     <use xlink:href="#TimesNewRomanPS-BoldMT-20" x="942.439453"/>
     <use xlink:href="#TimesNewRomanPS-BoldMT-44" x="967.439453"/>
     <use xlink:href="#TimesNewRomanPS-BoldMT-69" x="1039.65625"/>
     <use xlink:href="#TimesNewRomanPS-BoldMT-73" x="1067.439453"/>
     <use xlink:href="#TimesNewRomanPS-BoldMT-74" x="1106.355469"/>
     <use xlink:href="#TimesNewRomanPS-BoldMT-72" x="1139.65625"/>
     <use xlink:href="#TimesNewRomanPS-BoldMT-69" x="1184.041016"/>
     <use xlink:href="#TimesNewRomanPS-BoldMT-62" x="1211.824219"/>
     <use xlink:href="#TimesNewRomanPS-BoldMT-75" x="1267.439453"/>
     <use xlink:href="#TimesNewRomanPS-BoldMT-74" x="1323.054688"/>
     <use xlink:href="#TimesNewRomanPS-BoldMT-69" x="1356.355469"/>
     <use xlink:href="#TimesNewRomanPS-BoldMT-6f" x="1384.138672"/>
     <use xlink:href="#TimesNewRomanPS-BoldMT-6e" x="1434.138672"/>
    </g>
   </g>
  </g>
 </g>
</svg>
