<?xml version="1.0" encoding="utf-8" standalone="no"?>
<!DOCTYPE svg PUBLIC "-//W3C//DTD SVG 1.1//EN"
  "http://www.w3.org/Graphics/SVG/1.1/DTD/svg11.dtd">
<svg xmlns:xlink="http://www.w3.org/1999/xlink" width="708.48pt" height="567.184235pt" viewBox="0 0 708.48 567.184235" xmlns="http://www.w3.org/2000/svg" version="1.1">
 <metadata>
  <rdf:RDF xmlns:dc="http://purl.org/dc/elements/1.1/" xmlns:cc="http://creativecommons.org/ns#" xmlns:rdf="http://www.w3.org/1999/02/22-rdf-syntax-ns#">
   <cc:Work>
    <dc:type rdf:resource="http://purl.org/dc/dcmitype/StillImage"/>
    <dc:date>2025-08-16T22:00:01.801003</dc:date>
    <dc:format>image/svg+xml</dc:format>
    <dc:creator>
     <cc:Agent>
      <dc:title>Matplotlib v3.9.4, https://matplotlib.org/</dc:title>
     </cc:Agent>
    </dc:creator>
   </cc:Work>
  </rdf:RDF>
 </metadata>
 <defs>
  <style type="text/css">*{stroke-linejoin: round; stroke-linecap: butt}</style>
 </defs>
 <g id="figure_1">
  <g id="patch_1">
   <path d="M 0 567.184235 
L 708.48 567.184235 
L 708.48 0 
L 0 0 
z
" style="fill: #ffffff"/>
  </g>
  <g id="axes_1">
   <g id="patch_2">
    <path d="M 354.240021 39.713425 
C 351.852714 39.713425 349.465529 39.747517 347.079195 39.815688 
C 344.692862 39.88386 342.307624 39.986106 339.92421 40.122394 
L 354.240021 290.477822 
z
" style="fill: #8dd3c7; stroke: #000000; stroke-width: 0.5; stroke-linejoin: miter"/>
   </g>
   <g id="patch_3">
    <path d="M 339.924203 40.122398 
C 337.540786 40.258682 335.159436 40.429 332.780882 40.633292 
C 330.402328 40.837583 328.026812 41.075834 325.655062 41.347969 
L 354.240021 290.477822 
z
" style="fill: #ffffb3; stroke: #000000; stroke-width: 0.5; stroke-linejoin: miter"/>
   </g>
   <g id="patch_4">
    <path d="M 325.655062 41.347969 
C 323.283312 41.620104 320.91557 41.926093 318.552557 42.265847 
C 316.189544 42.605601 313.831504 42.97906 311.479159 43.386149 
L 354.240021 290.477822 
z
" style="fill: #bebada; stroke: #000000; stroke-width: 0.5; stroke-linejoin: miter"/>
   </g>
   <g id="patch_5">
    <path d="M 311.479159 43.386149 
C 309.126817 43.793238 306.780395 44.233912 304.440639 44.708007 
C 302.100882 45.182102 299.768028 45.689589 297.442762 46.230301 
L 354.240021 290.477822 
z
" style="fill: #fb8072; stroke: #000000; stroke-width: 0.5; stroke-linejoin: miter"/>
   </g>
   <g id="patch_6">
    <path d="M 297.442762 46.230301 
C 295.117493 46.771014 292.800067 47.344908 290.491187 47.951805 
C 288.182307 48.558702 285.882208 49.198541 283.591601 49.871129 
L 354.240021 290.477822 
z
" style="fill: #80b1d3; stroke: #000000; stroke-width: 0.5; stroke-linejoin: miter"/>
   </g>
   <g id="patch_7">
    <path d="M 283.591601 49.871129 
C 281.300993 50.543716 279.020101 51.248962 276.749634 51.986688 
C 274.479167 52.724413 272.219349 53.494513 269.970876 54.296763 
L 354.240021 290.477822 
z
" style="fill: #b3de69; stroke: #000000; stroke-width: 0.5; stroke-linejoin: miter"/>
   </g>
   <g id="patch_8">
    <path d="M 269.970876 54.296763 
C 267.722404 55.099014 265.485492 55.93334 263.260844 56.799473 
C 261.036196 57.665605 258.824022 58.563455 256.625015 59.492767 
L 354.240021 290.477822 
z
" style="fill: #fccde5; stroke: #000000; stroke-width: 0.5; stroke-linejoin: miter"/>
   </g>
   <g id="patch_9">
    <path d="M 256.625015 59.492767 
C 254.426008 60.42208 252.240409 61.382736 250.068837 62.374451 
C 247.897265 63.366166 245.739952 64.388865 243.597586 65.442191 
L 354.240021 290.477822 
z
" style="fill: #d9d9d9; stroke: #000000; stroke-width: 0.5; stroke-linejoin: miter"/>
   </g>
   <g id="patch_10">
    <path d="M 243.597586 65.442191 
C 241.45522 66.495516 239.328002 67.579393 237.216583 68.693477 
C 235.105164 69.807561 233.009761 70.951732 230.931016 72.125648 
L 354.240021 290.477822 
z
" style="fill: #bc80bd; stroke: #000000; stroke-width: 0.5; stroke-linejoin: miter"/>
   </g>
   <g id="patch_11">
    <path d="M 230.931016 72.125648 
C 228.852278 73.299563 226.790392 74.503103 224.746024 75.735909 
C 222.701656 76.968715 220.674985 78.230637 218.666654 79.521316 
L 354.240021 290.477822 
z
" style="fill: #ccebc5; stroke: #000000; stroke-width: 0.5; stroke-linejoin: miter"/>
   </g>
   <g id="patch_12">
    <path d="M 218.666654 79.521316 
C 193.496418 95.697227 171.423202 116.248104 153.492859 140.200213 
C 135.562517 164.152321 122.062816 191.121268 113.633388 219.8292 
C 105.203959 248.537131 101.980086 278.523405 104.114537 308.367076 
C 106.248989 338.210749 113.707493 367.432885 126.13665 394.648991 
C 138.565807 421.865105 155.766196 446.638386 176.922759 467.794964 
C 198.079322 488.951542 222.852603 506.151947 250.068702 518.581133 
C 277.284801 531.01032 306.506944 538.468824 336.350614 540.603291 
C 366.194283 542.737757 396.180432 539.513944 424.888374 531.084545 
C 453.596313 522.655146 480.565328 509.155431 504.517451 491.225118 
C 528.469574 473.294805 549.020511 451.22153 565.196437 426.051308 
C 581.372363 400.881087 592.9137 373.017855 599.27365 343.781714 
C 605.633585 314.545577 606.710048 284.405716 602.451996 254.790354 
C 598.193958 225.174992 588.669787 196.559394 574.330708 170.299318 
C 559.991629 144.039249 541.067748 120.556124 518.455793 100.962749 
C 495.843838 81.369374 469.90673 65.980168 441.873284 55.524218 
C 413.839843 45.068268 384.15996 39.713425 354.240056 39.713425 
L 354.240021 290.477822 
z
" style="fill: #ffed6f; stroke: #000000; stroke-width: 0.5; stroke-linejoin: miter"/>
   </g>
   <g id="matplotlib.axis_1"/>
   <g id="matplotlib.axis_2"/>
   <g id="text_1">
    <!-- Bitcoin Price -->
    <g transform="translate(275.306837 17.508851) scale(0.1 -0.1)">
     <defs>
      <path id="DejaVuSans-Bold-42" d="M 2456 2859 
Q 2741 2859 2887 2984 
Q 3034 3109 3034 3353 
Q 3034 3594 2887 3720 
Q 2741 3847 2456 3847 
L 1791 3847 
L 1791 2859 
L 2456 2859 
z
M 2497 819 
Q 2859 819 3042 972 
Q 3225 1125 3225 1434 
Q 3225 1738 3044 1889 
Q 2863 2041 2497 2041 
L 1791 2041 
L 1791 819 
L 2497 819 
z
M 3616 2497 
Q 4003 2384 4215 2081 
Q 4428 1778 4428 1338 
Q 4428 663 3972 331 
Q 3516 0 2584 0 
L 588 0 
L 588 4666 
L 2394 4666 
Q 3366 4666 3802 4372 
Q 4238 4078 4238 3431 
Q 4238 3091 4078 2852 
Q 3919 2613 3616 2497 
z
" transform="scale(0.015625)"/>
      <path id="DejaVuSans-Bold-69" d="M 538 3500 
L 1656 3500 
L 1656 0 
L 538 0 
L 538 3500 
z
M 538 4863 
L 1656 4863 
L 1656 3950 
L 538 3950 
L 538 4863 
z
" transform="scale(0.015625)"/>
      <path id="DejaVuSans-Bold-74" d="M 1759 4494 
L 1759 3500 
L 2913 3500 
L 2913 2700 
L 1759 2700 
L 1759 1216 
Q 1759 972 1856 886 
Q 1953 800 2241 800 
L 2816 800 
L 2816 0 
L 1856 0 
Q 1194 0 917 276 
Q 641 553 641 1216 
L 641 2700 
L 84 2700 
L 84 3500 
L 641 3500 
L 641 4494 
L 1759 4494 
z
" transform="scale(0.015625)"/>
      <path id="DejaVuSans-Bold-63" d="M 3366 3391 
L 3366 2478 
Q 3138 2634 2908 2709 
Q 2678 2784 2431 2784 
Q 1963 2784 1702 2511 
Q 1441 2238 1441 1747 
Q 1441 1256 1702 982 
Q 1963 709 2431 709 
Q 2694 709 2930 787 
Q 3166 866 3366 1019 
L 3366 103 
Q 3103 6 2833 -42 
Q 2563 -91 2291 -91 
Q 1344 -91 809 395 
Q 275 881 275 1747 
Q 275 2613 809 3098 
Q 1344 3584 2291 3584 
Q 2566 3584 2833 3536 
Q 3100 3488 3366 3391 
z
" transform="scale(0.015625)"/>
      <path id="DejaVuSans-Bold-6f" d="M 2203 2784 
Q 1831 2784 1636 2517 
Q 1441 2250 1441 1747 
Q 1441 1244 1636 976 
Q 1831 709 2203 709 
Q 2569 709 2762 976 
Q 2956 1244 2956 1747 
Q 2956 2250 2762 2517 
Q 2569 2784 2203 2784 
z
M 2203 3584 
Q 3106 3584 3614 3096 
Q 4122 2609 4122 1747 
Q 4122 884 3614 396 
Q 3106 -91 2203 -91 
Q 1297 -91 786 396 
Q 275 884 275 1747 
Q 275 2609 786 3096 
Q 1297 3584 2203 3584 
z
" transform="scale(0.015625)"/>
      <path id="DejaVuSans-Bold-6e" d="M 4056 2131 
L 4056 0 
L 2931 0 
L 2931 347 
L 2931 1631 
Q 2931 2084 2911 2256 
Q 2891 2428 2841 2509 
Q 2775 2619 2662 2680 
Q 2550 2741 2406 2741 
Q 2056 2741 1856 2470 
Q 1656 2200 1656 1722 
L 1656 0 
L 538 0 
L 538 3500 
L 1656 3500 
L 1656 2988 
Q 1909 3294 2193 3439 
Q 2478 3584 2822 3584 
Q 3428 3584 3742 3212 
Q 4056 2841 4056 2131 
z
" transform="scale(0.015625)"/>
      <path id="DejaVuSans-Bold-20" transform="scale(0.015625)"/>
      <path id="DejaVuSans-Bold-50" d="M 588 4666 
L 2584 4666 
Q 3475 4666 3951 4270 
Q 4428 3875 4428 3144 
Q 4428 2409 3951 2014 
Q 3475 1619 2584 1619 
L 1791 1619 
L 1791 0 
L 588 0 
L 588 4666 
z
M 1791 3794 
L 1791 2491 
L 2456 2491 
Q 2806 2491 2997 2661 
Q 3188 2831 3188 3144 
Q 3188 3456 2997 3625 
Q 2806 3794 2456 3794 
L 1791 3794 
z
" transform="scale(0.015625)"/>
      <path id="DejaVuSans-Bold-72" d="M 3138 2547 
Q 2991 2616 2845 2648 
Q 2700 2681 2553 2681 
Q 2122 2681 1889 2404 
Q 1656 2128 1656 1613 
L 1656 0 
L 538 0 
L 538 3500 
L 1656 3500 
L 1656 2925 
Q 1872 3269 2151 3426 
Q 2431 3584 2822 3584 
Q 2878 3584 2943 3579 
Q 3009 3575 3134 3559 
L 3138 2547 
z
" transform="scale(0.015625)"/>
      <path id="DejaVuSans-Bold-65" d="M 4031 1759 
L 4031 1441 
L 1416 1441 
Q 1456 1047 1700 850 
Q 1944 653 2381 653 
Q 2734 653 3104 758 
Q 3475 863 3866 1075 
L 3866 213 
Q 3469 63 3072 -14 
Q 2675 -91 2278 -91 
Q 1328 -91 801 392 
Q 275 875 275 1747 
Q 275 2603 792 3093 
Q 1309 3584 2216 3584 
Q 3041 3584 3536 3087 
Q 4031 2591 4031 1759 
z
M 2881 2131 
Q 2881 2450 2695 2645 
Q 2509 2841 2209 2841 
Q 1884 2841 1681 2658 
Q 1478 2475 1428 2131 
L 2881 2131 
z
" transform="scale(0.015625)"/>
     </defs>
     <use xlink:href="#DejaVuSans-Bold-42"/>
     <use xlink:href="#DejaVuSans-Bold-69" x="76.220703"/>
     <use xlink:href="#DejaVuSans-Bold-74" x="110.498047"/>
     <use xlink:href="#DejaVuSans-Bold-63" x="158.300781"/>
     <use xlink:href="#DejaVuSans-Bold-6f" x="217.578125"/>
     <use xlink:href="#DejaVuSans-Bold-69" x="286.279297"/>
     <use xlink:href="#DejaVuSans-Bold-6e" x="320.556641"/>
     <use xlink:href="#DejaVuSans-Bold-20" x="391.748047"/>
     <use xlink:href="#DejaVuSans-Bold-50" x="426.5625"/>
     <use xlink:href="#DejaVuSans-Bold-72" x="499.853516"/>
     <use xlink:href="#DejaVuSans-Bold-69" x="549.169922"/>
     <use xlink:href="#DejaVuSans-Bold-63" x="583.447266"/>
     <use xlink:href="#DejaVuSans-Bold-65" x="642.724609"/>
    </g>
   </g>
   <g id="text_2">
    <!-- 0.9% -->
    <g style="fill: #ffffff" transform="translate(336.076324 142.839917) scale(0.1 -0.1)">
     <defs>
      <path id="DejaVuSans-Bold-30" d="M 2944 2338 
Q 2944 3213 2780 3570 
Q 2616 3928 2228 3928 
Q 1841 3928 1675 3570 
Q 1509 3213 1509 2338 
Q 1509 1453 1675 1090 
Q 1841 728 2228 728 
Q 2613 728 2778 1090 
Q 2944 1453 2944 2338 
z
M 4147 2328 
Q 4147 1169 3647 539 
Q 3147 -91 2228 -91 
Q 1306 -91 806 539 
Q 306 1169 306 2328 
Q 306 3491 806 4120 
Q 1306 4750 2228 4750 
Q 3147 4750 3647 4120 
Q 4147 3491 4147 2328 
z
" transform="scale(0.015625)"/>
      <path id="DejaVuSans-Bold-2e" d="M 653 1209 
L 1778 1209 
L 1778 0 
L 653 0 
L 653 1209 
z
" transform="scale(0.015625)"/>
      <path id="DejaVuSans-Bold-39" d="M 641 103 
L 641 966 
Q 928 831 1190 764 
Q 1453 697 1709 697 
Q 2247 697 2547 995 
Q 2847 1294 2900 1881 
Q 2688 1725 2447 1647 
Q 2206 1569 1925 1569 
Q 1209 1569 770 1986 
Q 331 2403 331 3084 
Q 331 3838 820 4291 
Q 1309 4744 2131 4744 
Q 3044 4744 3544 4128 
Q 4044 3513 4044 2388 
Q 4044 1231 3459 570 
Q 2875 -91 1856 -91 
Q 1528 -91 1228 -42 
Q 928 6 641 103 
z
M 2125 2350 
Q 2441 2350 2600 2554 
Q 2759 2759 2759 3169 
Q 2759 3575 2600 3781 
Q 2441 3988 2125 3988 
Q 1809 3988 1650 3781 
Q 1491 3575 1491 3169 
Q 1491 2759 1650 2554 
Q 1809 2350 2125 2350 
z
" transform="scale(0.015625)"/>
      <path id="DejaVuSans-Bold-25" d="M 4959 1925 
Q 4738 1925 4616 1733 
Q 4494 1541 4494 1184 
Q 4494 825 4614 633 
Q 4734 441 4959 441 
Q 5184 441 5303 633 
Q 5422 825 5422 1184 
Q 5422 1541 5301 1733 
Q 5181 1925 4959 1925 
z
M 4959 2450 
Q 5541 2450 5875 2112 
Q 6209 1775 6209 1184 
Q 6209 594 5875 251 
Q 5541 -91 4959 -91 
Q 4378 -91 4042 251 
Q 3706 594 3706 1184 
Q 3706 1772 4042 2111 
Q 4378 2450 4959 2450 
z
M 2094 -91 
L 1403 -91 
L 4319 4750 
L 5013 4750 
L 2094 -91 
z
M 1453 4750 
Q 2034 4750 2367 4411 
Q 2700 4072 2700 3481 
Q 2700 2891 2367 2550 
Q 2034 2209 1453 2209 
Q 872 2209 539 2550 
Q 206 2891 206 3481 
Q 206 4072 539 4411 
Q 872 4750 1453 4750 
z
M 1453 4225 
Q 1228 4225 1106 4031 
Q 984 3838 984 3481 
Q 984 3122 1106 2926 
Q 1228 2731 1453 2731 
Q 1678 2731 1798 2926 
Q 1919 3122 1919 3481 
Q 1919 3838 1797 4031 
Q 1675 4225 1453 4225 
z
" transform="scale(0.015625)"/>
     </defs>
     <use xlink:href="#DejaVuSans-Bold-30"/>
     <use xlink:href="#DejaVuSans-Bold-2e" x="69.580078"/>
     <use xlink:href="#DejaVuSans-Bold-39" x="107.568359"/>
     <use xlink:href="#DejaVuSans-Bold-25" x="177.148438"/>
    </g>
   </g>
   <g id="text_3">
    <!-- Ethereum Price -->
    <g transform="translate(243.98806 18.40822) scale(0.1 -0.1)">
     <defs>
      <path id="DejaVuSans-Bold-45" d="M 588 4666 
L 3834 4666 
L 3834 3756 
L 1791 3756 
L 1791 2888 
L 3713 2888 
L 3713 1978 
L 1791 1978 
L 1791 909 
L 3903 909 
L 3903 0 
L 588 0 
L 588 4666 
z
" transform="scale(0.015625)"/>
      <path id="DejaVuSans-Bold-68" d="M 4056 2131 
L 4056 0 
L 2931 0 
L 2931 347 
L 2931 1625 
Q 2931 2084 2911 2256 
Q 2891 2428 2841 2509 
Q 2775 2619 2662 2680 
Q 2550 2741 2406 2741 
Q 2056 2741 1856 2470 
Q 1656 2200 1656 1722 
L 1656 0 
L 538 0 
L 538 4863 
L 1656 4863 
L 1656 2988 
Q 1909 3294 2193 3439 
Q 2478 3584 2822 3584 
Q 3428 3584 3742 3212 
Q 4056 2841 4056 2131 
z
" transform="scale(0.015625)"/>
      <path id="DejaVuSans-Bold-75" d="M 500 1363 
L 500 3500 
L 1625 3500 
L 1625 3150 
Q 1625 2866 1622 2436 
Q 1619 2006 1619 1863 
Q 1619 1441 1641 1255 
Q 1663 1069 1716 984 
Q 1784 875 1895 815 
Q 2006 756 2150 756 
Q 2500 756 2700 1025 
Q 2900 1294 2900 1772 
L 2900 3500 
L 4019 3500 
L 4019 0 
L 2900 0 
L 2900 506 
Q 2647 200 2364 54 
Q 2081 -91 1741 -91 
Q 1134 -91 817 281 
Q 500 653 500 1363 
z
" transform="scale(0.015625)"/>
      <path id="DejaVuSans-Bold-6d" d="M 3781 2919 
Q 3994 3244 4286 3414 
Q 4578 3584 4928 3584 
Q 5531 3584 5847 3212 
Q 6163 2841 6163 2131 
L 6163 0 
L 5038 0 
L 5038 1825 
Q 5041 1866 5042 1909 
Q 5044 1953 5044 2034 
Q 5044 2406 4934 2573 
Q 4825 2741 4581 2741 
Q 4263 2741 4089 2478 
Q 3916 2216 3909 1719 
L 3909 0 
L 2784 0 
L 2784 1825 
Q 2784 2406 2684 2573 
Q 2584 2741 2328 2741 
Q 2006 2741 1831 2477 
Q 1656 2213 1656 1722 
L 1656 0 
L 531 0 
L 531 3500 
L 1656 3500 
L 1656 2988 
Q 1863 3284 2130 3434 
Q 2397 3584 2719 3584 
Q 3081 3584 3359 3409 
Q 3638 3234 3781 2919 
z
" transform="scale(0.015625)"/>
     </defs>
     <use xlink:href="#DejaVuSans-Bold-45"/>
     <use xlink:href="#DejaVuSans-Bold-74" x="68.310547"/>
     <use xlink:href="#DejaVuSans-Bold-68" x="116.113281"/>
     <use xlink:href="#DejaVuSans-Bold-65" x="187.304688"/>
     <use xlink:href="#DejaVuSans-Bold-72" x="255.126953"/>
     <use xlink:href="#DejaVuSans-Bold-65" x="304.443359"/>
     <use xlink:href="#DejaVuSans-Bold-75" x="372.265625"/>
     <use xlink:href="#DejaVuSans-Bold-6d" x="443.457031"/>
     <use xlink:href="#DejaVuSans-Bold-20" x="547.65625"/>
     <use xlink:href="#DejaVuSans-Bold-50" x="582.470703"/>
     <use xlink:href="#DejaVuSans-Bold-72" x="655.761719"/>
     <use xlink:href="#DejaVuSans-Bold-69" x="705.078125"/>
     <use xlink:href="#DejaVuSans-Bold-63" x="739.355469"/>
     <use xlink:href="#DejaVuSans-Bold-65" x="798.632812"/>
    </g>
   </g>
   <g id="text_4">
    <!-- 0.9% -->
    <g style="fill: #ffffff" transform="translate(327.497332 143.330482) scale(0.1 -0.1)">
     <use xlink:href="#DejaVuSans-Bold-30"/>
     <use xlink:href="#DejaVuSans-Bold-2e" x="69.580078"/>
     <use xlink:href="#DejaVuSans-Bold-39" x="107.568359"/>
     <use xlink:href="#DejaVuSans-Bold-25" x="177.148438"/>
    </g>
   </g>
   <g id="text_5">
    <!-- Bnb Price -->
    <g transform="translate(261.204124 20.204018) scale(0.1 -0.1)">
     <defs>
      <path id="DejaVuSans-Bold-62" d="M 2400 722 
Q 2759 722 2948 984 
Q 3138 1247 3138 1747 
Q 3138 2247 2948 2509 
Q 2759 2772 2400 2772 
Q 2041 2772 1848 2508 
Q 1656 2244 1656 1747 
Q 1656 1250 1848 986 
Q 2041 722 2400 722 
z
M 1656 2988 
Q 1888 3294 2169 3439 
Q 2450 3584 2816 3584 
Q 3463 3584 3878 3070 
Q 4294 2556 4294 1747 
Q 4294 938 3878 423 
Q 3463 -91 2816 -91 
Q 2450 -91 2169 54 
Q 1888 200 1656 506 
L 1656 0 
L 538 0 
L 538 4863 
L 1656 4863 
L 1656 2988 
z
" transform="scale(0.015625)"/>
     </defs>
     <use xlink:href="#DejaVuSans-Bold-42"/>
     <use xlink:href="#DejaVuSans-Bold-6e" x="76.220703"/>
     <use xlink:href="#DejaVuSans-Bold-62" x="147.412109"/>
     <use xlink:href="#DejaVuSans-Bold-20" x="218.994141"/>
     <use xlink:href="#DejaVuSans-Bold-50" x="253.808594"/>
     <use xlink:href="#DejaVuSans-Bold-72" x="327.099609"/>
     <use xlink:href="#DejaVuSans-Bold-69" x="376.416016"/>
     <use xlink:href="#DejaVuSans-Bold-63" x="410.693359"/>
     <use xlink:href="#DejaVuSans-Bold-65" x="469.970703"/>
    </g>
   </g>
   <g id="text_6">
    <!-- 0.9% -->
    <g style="fill: #ffffff" transform="translate(318.960356 144.310008) scale(0.1 -0.1)">
     <use xlink:href="#DejaVuSans-Bold-30"/>
     <use xlink:href="#DejaVuSans-Bold-2e" x="69.580078"/>
     <use xlink:href="#DejaVuSans-Bold-39" x="107.568359"/>
     <use xlink:href="#DejaVuSans-Bold-25" x="177.148438"/>
    </g>
   </g>
   <g id="text_7">
    <!-- Cardano Price -->
    <g transform="translate(220.665388 22.890396) scale(0.1 -0.1)">
     <defs>
      <path id="DejaVuSans-Bold-43" d="M 4288 256 
Q 3956 84 3597 -3 
Q 3238 -91 2847 -91 
Q 1681 -91 1000 561 
Q 319 1213 319 2328 
Q 319 3447 1000 4098 
Q 1681 4750 2847 4750 
Q 3238 4750 3597 4662 
Q 3956 4575 4288 4403 
L 4288 3438 
Q 3953 3666 3628 3772 
Q 3303 3878 2944 3878 
Q 2300 3878 1931 3465 
Q 1563 3053 1563 2328 
Q 1563 1606 1931 1193 
Q 2300 781 2944 781 
Q 3303 781 3628 887 
Q 3953 994 4288 1222 
L 4288 256 
z
" transform="scale(0.015625)"/>
      <path id="DejaVuSans-Bold-61" d="M 2106 1575 
Q 1756 1575 1579 1456 
Q 1403 1338 1403 1106 
Q 1403 894 1545 773 
Q 1688 653 1941 653 
Q 2256 653 2472 879 
Q 2688 1106 2688 1447 
L 2688 1575 
L 2106 1575 
z
M 3816 1997 
L 3816 0 
L 2688 0 
L 2688 519 
Q 2463 200 2181 54 
Q 1900 -91 1497 -91 
Q 953 -91 614 226 
Q 275 544 275 1050 
Q 275 1666 698 1953 
Q 1122 2241 2028 2241 
L 2688 2241 
L 2688 2328 
Q 2688 2594 2478 2717 
Q 2269 2841 1825 2841 
Q 1466 2841 1156 2769 
Q 847 2697 581 2553 
L 581 3406 
Q 941 3494 1303 3539 
Q 1666 3584 2028 3584 
Q 2975 3584 3395 3211 
Q 3816 2838 3816 1997 
z
" transform="scale(0.015625)"/>
      <path id="DejaVuSans-Bold-64" d="M 2919 2988 
L 2919 4863 
L 4044 4863 
L 4044 0 
L 2919 0 
L 2919 506 
Q 2688 197 2409 53 
Q 2131 -91 1766 -91 
Q 1119 -91 703 423 
Q 288 938 288 1747 
Q 288 2556 703 3070 
Q 1119 3584 1766 3584 
Q 2128 3584 2408 3439 
Q 2688 3294 2919 2988 
z
M 2181 722 
Q 2541 722 2730 984 
Q 2919 1247 2919 1747 
Q 2919 2247 2730 2509 
Q 2541 2772 2181 2772 
Q 1825 2772 1636 2509 
Q 1447 2247 1447 1747 
Q 1447 1247 1636 984 
Q 1825 722 2181 722 
z
" transform="scale(0.015625)"/>
     </defs>
     <use xlink:href="#DejaVuSans-Bold-43"/>
     <use xlink:href="#DejaVuSans-Bold-61" x="73.388672"/>
     <use xlink:href="#DejaVuSans-Bold-72" x="140.869141"/>
     <use xlink:href="#DejaVuSans-Bold-64" x="190.185547"/>
     <use xlink:href="#DejaVuSans-Bold-61" x="261.767578"/>
     <use xlink:href="#DejaVuSans-Bold-6e" x="329.248047"/>
     <use xlink:href="#DejaVuSans-Bold-6f" x="400.439453"/>
     <use xlink:href="#DejaVuSans-Bold-20" x="469.140625"/>
     <use xlink:href="#DejaVuSans-Bold-50" x="503.955078"/>
     <use xlink:href="#DejaVuSans-Bold-72" x="577.246094"/>
     <use xlink:href="#DejaVuSans-Bold-69" x="626.5625"/>
     <use xlink:href="#DejaVuSans-Bold-63" x="660.839844"/>
     <use xlink:href="#DejaVuSans-Bold-65" x="720.117188"/>
    </g>
   </g>
   <g id="text_8">
    <!-- 0.9% -->
    <g style="fill: #ffffff" transform="translate(310.493204 145.775305) scale(0.1 -0.1)">
     <use xlink:href="#DejaVuSans-Bold-30"/>
     <use xlink:href="#DejaVuSans-Bold-2e" x="69.580078"/>
     <use xlink:href="#DejaVuSans-Bold-39" x="107.568359"/>
     <use xlink:href="#DejaVuSans-Bold-25" x="177.148438"/>
    </g>
   </g>
   <g id="text_9">
    <!-- Xrp Price -->
    <g transform="translate(232.43658 26.458588) scale(0.1 -0.1)">
     <defs>
      <path id="DejaVuSans-Bold-58" d="M 3188 2381 
L 4806 0 
L 3553 0 
L 2463 1594 
L 1381 0 
L 122 0 
L 1741 2381 
L 184 4666 
L 1441 4666 
L 2463 3163 
L 3481 4666 
L 4744 4666 
L 3188 2381 
z
" transform="scale(0.015625)"/>
      <path id="DejaVuSans-Bold-70" d="M 1656 506 
L 1656 -1331 
L 538 -1331 
L 538 3500 
L 1656 3500 
L 1656 2988 
Q 1888 3294 2169 3439 
Q 2450 3584 2816 3584 
Q 3463 3584 3878 3070 
Q 4294 2556 4294 1747 
Q 4294 938 3878 423 
Q 3463 -91 2816 -91 
Q 2450 -91 2169 54 
Q 1888 200 1656 506 
z
M 2400 2772 
Q 2041 2772 1848 2508 
Q 1656 2244 1656 1747 
Q 1656 1250 1848 986 
Q 2041 722 2400 722 
Q 2759 722 2948 984 
Q 3138 1247 3138 1747 
Q 3138 2247 2948 2509 
Q 2759 2772 2400 2772 
z
" transform="scale(0.015625)"/>
     </defs>
     <use xlink:href="#DejaVuSans-Bold-58"/>
     <use xlink:href="#DejaVuSans-Bold-72" x="77.099609"/>
     <use xlink:href="#DejaVuSans-Bold-70" x="126.416016"/>
     <use xlink:href="#DejaVuSans-Bold-20" x="197.998047"/>
     <use xlink:href="#DejaVuSans-Bold-50" x="232.8125"/>
     <use xlink:href="#DejaVuSans-Bold-72" x="306.103516"/>
     <use xlink:href="#DejaVuSans-Bold-69" x="355.419922"/>
     <use xlink:href="#DejaVuSans-Bold-63" x="389.697266"/>
     <use xlink:href="#DejaVuSans-Bold-65" x="448.974609"/>
    </g>
   </g>
   <g id="text_10">
    <!-- 0.9% -->
    <g style="fill: #ffffff" transform="translate(302.123513 147.721592) scale(0.1 -0.1)">
     <use xlink:href="#DejaVuSans-Bold-30"/>
     <use xlink:href="#DejaVuSans-Bold-2e" x="69.580078"/>
     <use xlink:href="#DejaVuSans-Bold-39" x="107.568359"/>
     <use xlink:href="#DejaVuSans-Bold-25" x="177.148438"/>
    </g>
   </g>
   <g id="text_11">
    <!-- Dogecoin Price -->
    <g transform="translate(184.661533 30.857884) scale(0.1 -0.1)">
     <defs>
      <path id="DejaVuSans-Bold-44" d="M 1791 3756 
L 1791 909 
L 2222 909 
Q 2959 909 3348 1275 
Q 3738 1641 3738 2338 
Q 3738 3031 3350 3393 
Q 2963 3756 2222 3756 
L 1791 3756 
z
M 588 4666 
L 1856 4666 
Q 2919 4666 3439 4514 
Q 3959 4363 4331 4000 
Q 4659 3684 4818 3271 
Q 4978 2859 4978 2338 
Q 4978 1809 4818 1395 
Q 4659 981 4331 666 
Q 3956 303 3431 151 
Q 2906 0 1856 0 
L 588 0 
L 588 4666 
z
" transform="scale(0.015625)"/>
      <path id="DejaVuSans-Bold-67" d="M 2919 594 
Q 2688 288 2409 144 
Q 2131 0 1766 0 
Q 1125 0 706 504 
Q 288 1009 288 1791 
Q 288 2575 706 3076 
Q 1125 3578 1766 3578 
Q 2131 3578 2409 3434 
Q 2688 3291 2919 2981 
L 2919 3500 
L 4044 3500 
L 4044 353 
Q 4044 -491 3511 -936 
Q 2978 -1381 1966 -1381 
Q 1638 -1381 1331 -1331 
Q 1025 -1281 716 -1178 
L 716 -306 
Q 1009 -475 1290 -558 
Q 1572 -641 1856 -641 
Q 2406 -641 2662 -400 
Q 2919 -159 2919 353 
L 2919 594 
z
M 2181 2772 
Q 1834 2772 1640 2515 
Q 1447 2259 1447 1791 
Q 1447 1309 1634 1061 
Q 1822 813 2181 813 
Q 2531 813 2725 1069 
Q 2919 1325 2919 1791 
Q 2919 2259 2725 2515 
Q 2531 2772 2181 2772 
z
" transform="scale(0.015625)"/>
     </defs>
     <use xlink:href="#DejaVuSans-Bold-44"/>
     <use xlink:href="#DejaVuSans-Bold-6f" x="83.007812"/>
     <use xlink:href="#DejaVuSans-Bold-67" x="151.708984"/>
     <use xlink:href="#DejaVuSans-Bold-65" x="223.291016"/>
     <use xlink:href="#DejaVuSans-Bold-63" x="291.113281"/>
     <use xlink:href="#DejaVuSans-Bold-6f" x="350.390625"/>
     <use xlink:href="#DejaVuSans-Bold-69" x="419.091797"/>
     <use xlink:href="#DejaVuSans-Bold-6e" x="453.369141"/>
     <use xlink:href="#DejaVuSans-Bold-20" x="524.560547"/>
     <use xlink:href="#DejaVuSans-Bold-50" x="559.375"/>
     <use xlink:href="#DejaVuSans-Bold-72" x="632.666016"/>
     <use xlink:href="#DejaVuSans-Bold-69" x="681.982422"/>
     <use xlink:href="#DejaVuSans-Bold-63" x="716.259766"/>
     <use xlink:href="#DejaVuSans-Bold-65" x="775.537109"/>
    </g>
   </g>
   <g id="text_12">
    <!-- 0.9% -->
    <g style="fill: #ffffff" transform="translate(293.878601 150.142515) scale(0.1 -0.1)">
     <use xlink:href="#DejaVuSans-Bold-30"/>
     <use xlink:href="#DejaVuSans-Bold-2e" x="69.580078"/>
     <use xlink:href="#DejaVuSans-Bold-39" x="107.568359"/>
     <use xlink:href="#DejaVuSans-Bold-25" x="177.148438"/>
    </g>
   </g>
   <g id="text_13">
    <!-- Solana Price -->
    <g transform="translate(184.166049 36.191011) scale(0.1 -0.1)">
     <defs>
      <path id="DejaVuSans-Bold-53" d="M 3834 4519 
L 3834 3531 
Q 3450 3703 3084 3790 
Q 2719 3878 2394 3878 
Q 1963 3878 1756 3759 
Q 1550 3641 1550 3391 
Q 1550 3203 1689 3098 
Q 1828 2994 2194 2919 
L 2706 2816 
Q 3484 2659 3812 2340 
Q 4141 2022 4141 1434 
Q 4141 663 3683 286 
Q 3225 -91 2284 -91 
Q 1841 -91 1394 -6 
Q 947 78 500 244 
L 500 1259 
Q 947 1022 1364 901 
Q 1781 781 2169 781 
Q 2563 781 2772 912 
Q 2981 1044 2981 1288 
Q 2981 1506 2839 1625 
Q 2697 1744 2272 1838 
L 1806 1941 
Q 1106 2091 782 2419 
Q 459 2747 459 3303 
Q 459 4000 909 4375 
Q 1359 4750 2203 4750 
Q 2588 4750 2994 4692 
Q 3400 4634 3834 4519 
z
" transform="scale(0.015625)"/>
      <path id="DejaVuSans-Bold-6c" d="M 538 4863 
L 1656 4863 
L 1656 0 
L 538 0 
L 538 4863 
z
" transform="scale(0.015625)"/>
     </defs>
     <use xlink:href="#DejaVuSans-Bold-53"/>
     <use xlink:href="#DejaVuSans-Bold-6f" x="72.021484"/>
     <use xlink:href="#DejaVuSans-Bold-6c" x="140.722656"/>
     <use xlink:href="#DejaVuSans-Bold-61" x="175"/>
     <use xlink:href="#DejaVuSans-Bold-6e" x="242.480469"/>
     <use xlink:href="#DejaVuSans-Bold-61" x="313.671875"/>
     <use xlink:href="#DejaVuSans-Bold-20" x="381.152344"/>
     <use xlink:href="#DejaVuSans-Bold-50" x="415.966797"/>
     <use xlink:href="#DejaVuSans-Bold-72" x="489.257812"/>
     <use xlink:href="#DejaVuSans-Bold-69" x="538.574219"/>
     <use xlink:href="#DejaVuSans-Bold-63" x="572.851562"/>
     <use xlink:href="#DejaVuSans-Bold-65" x="632.128906"/>
    </g>
   </g>
   <g id="text_14">
    <!-- 0.9% -->
    <g style="fill: #ffffff" transform="translate(285.785326 153.030187) scale(0.1 -0.1)">
     <use xlink:href="#DejaVuSans-Bold-30"/>
     <use xlink:href="#DejaVuSans-Bold-2e" x="69.580078"/>
     <use xlink:href="#DejaVuSans-Bold-39" x="107.568359"/>
     <use xlink:href="#DejaVuSans-Bold-25" x="177.148438"/>
    </g>
   </g>
   <g id="text_15">
    <!-- Tron Price -->
    <g transform="translate(183.128246 42.323507) scale(0.1 -0.1)">
     <defs>
      <path id="DejaVuSans-Bold-54" d="M 31 4666 
L 4331 4666 
L 4331 3756 
L 2784 3756 
L 2784 0 
L 1581 0 
L 1581 3756 
L 31 3756 
L 31 4666 
z
" transform="scale(0.015625)"/>
     </defs>
     <use xlink:href="#DejaVuSans-Bold-54"/>
     <use xlink:href="#DejaVuSans-Bold-72" x="57.212891"/>
     <use xlink:href="#DejaVuSans-Bold-6f" x="106.529297"/>
     <use xlink:href="#DejaVuSans-Bold-6e" x="175.230469"/>
     <use xlink:href="#DejaVuSans-Bold-20" x="246.421875"/>
     <use xlink:href="#DejaVuSans-Bold-50" x="281.236328"/>
     <use xlink:href="#DejaVuSans-Bold-72" x="354.527344"/>
     <use xlink:href="#DejaVuSans-Bold-69" x="403.84375"/>
     <use xlink:href="#DejaVuSans-Bold-63" x="438.121094"/>
     <use xlink:href="#DejaVuSans-Bold-65" x="497.398438"/>
    </g>
   </g>
   <g id="text_16">
    <!-- 0.9% -->
    <g style="fill: #ffffff" transform="translate(277.870104 156.375184) scale(0.1 -0.1)">
     <use xlink:href="#DejaVuSans-Bold-30"/>
     <use xlink:href="#DejaVuSans-Bold-2e" x="69.580078"/>
     <use xlink:href="#DejaVuSans-Bold-39" x="107.568359"/>
     <use xlink:href="#DejaVuSans-Bold-25" x="177.148438"/>
    </g>
   </g>
   <g id="text_17">
    <!-- Polkadot Price -->
    <g transform="translate(143.79861 49.274415) scale(0.1 -0.1)">
     <defs>
      <path id="DejaVuSans-Bold-6b" d="M 538 4863 
L 1656 4863 
L 1656 2216 
L 2944 3500 
L 4244 3500 
L 2534 1894 
L 4378 0 
L 3022 0 
L 1656 1459 
L 1656 0 
L 538 0 
L 538 4863 
z
" transform="scale(0.015625)"/>
     </defs>
     <use xlink:href="#DejaVuSans-Bold-50"/>
     <use xlink:href="#DejaVuSans-Bold-6f" x="73.291016"/>
     <use xlink:href="#DejaVuSans-Bold-6c" x="141.992188"/>
     <use xlink:href="#DejaVuSans-Bold-6b" x="176.269531"/>
     <use xlink:href="#DejaVuSans-Bold-61" x="242.773438"/>
     <use xlink:href="#DejaVuSans-Bold-64" x="310.253906"/>
     <use xlink:href="#DejaVuSans-Bold-6f" x="381.835938"/>
     <use xlink:href="#DejaVuSans-Bold-74" x="450.537109"/>
     <use xlink:href="#DejaVuSans-Bold-20" x="498.339844"/>
     <use xlink:href="#DejaVuSans-Bold-50" x="533.154297"/>
     <use xlink:href="#DejaVuSans-Bold-72" x="606.445312"/>
     <use xlink:href="#DejaVuSans-Bold-69" x="655.761719"/>
     <use xlink:href="#DejaVuSans-Bold-63" x="690.039062"/>
     <use xlink:href="#DejaVuSans-Bold-65" x="749.316406"/>
    </g>
   </g>
   <g id="text_18">
    <!-- 0.9% -->
    <g style="fill: #ffffff" transform="translate(270.158768 160.166589) scale(0.1 -0.1)">
     <use xlink:href="#DejaVuSans-Bold-30"/>
     <use xlink:href="#DejaVuSans-Bold-2e" x="69.580078"/>
     <use xlink:href="#DejaVuSans-Bold-39" x="107.568359"/>
     <use xlink:href="#DejaVuSans-Bold-25" x="177.148438"/>
    </g>
   </g>
   <g id="text_19">
    <!-- Avalanche Price -->
    <g transform="translate(122.146633 57.021092) scale(0.1 -0.1)">
     <defs>
      <path id="DejaVuSans-Bold-41" d="M 3419 850 
L 1538 850 
L 1241 0 
L 31 0 
L 1759 4666 
L 3194 4666 
L 4922 0 
L 3713 0 
L 3419 850 
z
M 1838 1716 
L 3116 1716 
L 2478 3572 
L 1838 1716 
z
" transform="scale(0.015625)"/>
      <path id="DejaVuSans-Bold-76" d="M 97 3500 
L 1216 3500 
L 2088 1081 
L 2956 3500 
L 4078 3500 
L 2700 0 
L 1472 0 
L 97 3500 
z
" transform="scale(0.015625)"/>
     </defs>
     <use xlink:href="#DejaVuSans-Bold-41"/>
     <use xlink:href="#DejaVuSans-Bold-76" x="73.767578"/>
     <use xlink:href="#DejaVuSans-Bold-61" x="138.953125"/>
     <use xlink:href="#DejaVuSans-Bold-6c" x="206.433594"/>
     <use xlink:href="#DejaVuSans-Bold-61" x="240.710938"/>
     <use xlink:href="#DejaVuSans-Bold-6e" x="308.191406"/>
     <use xlink:href="#DejaVuSans-Bold-63" x="379.382812"/>
     <use xlink:href="#DejaVuSans-Bold-68" x="438.660156"/>
     <use xlink:href="#DejaVuSans-Bold-65" x="509.851562"/>
     <use xlink:href="#DejaVuSans-Bold-20" x="577.673828"/>
     <use xlink:href="#DejaVuSans-Bold-50" x="612.488281"/>
     <use xlink:href="#DejaVuSans-Bold-72" x="685.779297"/>
     <use xlink:href="#DejaVuSans-Bold-69" x="735.095703"/>
     <use xlink:href="#DejaVuSans-Bold-63" x="769.373047"/>
     <use xlink:href="#DejaVuSans-Bold-65" x="828.650391"/>
    </g>
   </g>
   <g id="text_20">
    <!-- 0.9% -->
    <g style="fill: #ffffff" transform="translate(262.67644 164.392049) scale(0.1 -0.1)">
     <use xlink:href="#DejaVuSans-Bold-30"/>
     <use xlink:href="#DejaVuSans-Bold-2e" x="69.580078"/>
     <use xlink:href="#DejaVuSans-Bold-39" x="107.568359"/>
     <use xlink:href="#DejaVuSans-Bold-25" x="177.148438"/>
    </g>
   </g>
   <g id="text_21">
    <!-- Virtual Cluster -->
    <g transform="translate(431.953342 557.904548) scale(0.1 -0.1)">
     <defs>
      <path id="DejaVuSans-Bold-56" d="M 31 4666 
L 1241 4666 
L 2478 1222 
L 3713 4666 
L 4922 4666 
L 3194 0 
L 1759 0 
L 31 4666 
z
" transform="scale(0.015625)"/>
      <path id="DejaVuSans-Bold-73" d="M 3272 3391 
L 3272 2541 
Q 2913 2691 2578 2766 
Q 2244 2841 1947 2841 
Q 1628 2841 1473 2761 
Q 1319 2681 1319 2516 
Q 1319 2381 1436 2309 
Q 1553 2238 1856 2203 
L 2053 2175 
Q 2913 2066 3209 1816 
Q 3506 1566 3506 1031 
Q 3506 472 3093 190 
Q 2681 -91 1863 -91 
Q 1516 -91 1145 -36 
Q 775 19 384 128 
L 384 978 
Q 719 816 1070 734 
Q 1422 653 1784 653 
Q 2113 653 2278 743 
Q 2444 834 2444 1013 
Q 2444 1163 2330 1236 
Q 2216 1309 1875 1350 
L 1678 1375 
Q 931 1469 631 1722 
Q 331 1975 331 2491 
Q 331 3047 712 3315 
Q 1094 3584 1881 3584 
Q 2191 3584 2531 3537 
Q 2872 3491 3272 3391 
z
" transform="scale(0.015625)"/>
     </defs>
     <use xlink:href="#DejaVuSans-Bold-56"/>
     <use xlink:href="#DejaVuSans-Bold-69" x="75.642578"/>
     <use xlink:href="#DejaVuSans-Bold-72" x="109.919922"/>
     <use xlink:href="#DejaVuSans-Bold-74" x="159.236328"/>
     <use xlink:href="#DejaVuSans-Bold-75" x="207.039062"/>
     <use xlink:href="#DejaVuSans-Bold-61" x="278.230469"/>
     <use xlink:href="#DejaVuSans-Bold-6c" x="345.710938"/>
     <use xlink:href="#DejaVuSans-Bold-20" x="379.988281"/>
     <use xlink:href="#DejaVuSans-Bold-43" x="414.802734"/>
     <use xlink:href="#DejaVuSans-Bold-6c" x="488.191406"/>
     <use xlink:href="#DejaVuSans-Bold-75" x="522.46875"/>
     <use xlink:href="#DejaVuSans-Bold-73" x="593.660156"/>
     <use xlink:href="#DejaVuSans-Bold-74" x="653.181641"/>
     <use xlink:href="#DejaVuSans-Bold-65" x="700.984375"/>
     <use xlink:href="#DejaVuSans-Bold-72" x="768.806641"/>
    </g>
   </g>
   <g id="text_22">
    <!-- 90.9% -->
    <g style="fill: #ffffff" transform="translate(379.283011 437.601206) scale(0.1 -0.1)">
     <use xlink:href="#DejaVuSans-Bold-39"/>
     <use xlink:href="#DejaVuSans-Bold-30" x="69.580078"/>
     <use xlink:href="#DejaVuSans-Bold-2e" x="139.160156"/>
     <use xlink:href="#DejaVuSans-Bold-39" x="177.148438"/>
     <use xlink:href="#DejaVuSans-Bold-25" x="246.728516"/>
    </g>
   </g>
   <g id="text_23">
    <!-- Data Source Category Distribution -->
    <g transform="translate(218.246406 17.837813) scale(0.14 -0.14)">
     <defs>
      <path id="DejaVuSans-Bold-79" d="M 78 3500 
L 1197 3500 
L 2138 1125 
L 2938 3500 
L 4056 3500 
L 2584 -331 
Q 2363 -916 2067 -1148 
Q 1772 -1381 1288 -1381 
L 641 -1381 
L 641 -647 
L 991 -647 
Q 1275 -647 1404 -556 
Q 1534 -466 1606 -231 
L 1638 -134 
L 78 3500 
z
" transform="scale(0.015625)"/>
     </defs>
     <use xlink:href="#DejaVuSans-Bold-44"/>
     <use xlink:href="#DejaVuSans-Bold-61" x="83.007812"/>
     <use xlink:href="#DejaVuSans-Bold-74" x="150.488281"/>
     <use xlink:href="#DejaVuSans-Bold-61" x="198.291016"/>
     <use xlink:href="#DejaVuSans-Bold-20" x="265.771484"/>
     <use xlink:href="#DejaVuSans-Bold-53" x="300.585938"/>
     <use xlink:href="#DejaVuSans-Bold-6f" x="372.607422"/>
     <use xlink:href="#DejaVuSans-Bold-75" x="441.308594"/>
     <use xlink:href="#DejaVuSans-Bold-72" x="512.5"/>
     <use xlink:href="#DejaVuSans-Bold-63" x="561.816406"/>
     <use xlink:href="#DejaVuSans-Bold-65" x="621.09375"/>
     <use xlink:href="#DejaVuSans-Bold-20" x="688.916016"/>
     <use xlink:href="#DejaVuSans-Bold-43" x="723.730469"/>
     <use xlink:href="#DejaVuSans-Bold-61" x="797.119141"/>
     <use xlink:href="#DejaVuSans-Bold-74" x="864.599609"/>
     <use xlink:href="#DejaVuSans-Bold-65" x="912.402344"/>
     <use xlink:href="#DejaVuSans-Bold-67" x="980.224609"/>
     <use xlink:href="#DejaVuSans-Bold-6f" x="1051.806641"/>
     <use xlink:href="#DejaVuSans-Bold-72" x="1120.507812"/>
     <use xlink:href="#DejaVuSans-Bold-79" x="1169.824219"/>
     <use xlink:href="#DejaVuSans-Bold-20" x="1235.009766"/>
     <use xlink:href="#DejaVuSans-Bold-44" x="1269.824219"/>
     <use xlink:href="#DejaVuSans-Bold-69" x="1352.832031"/>
     <use xlink:href="#DejaVuSans-Bold-73" x="1387.109375"/>
     <use xlink:href="#DejaVuSans-Bold-74" x="1446.630859"/>
     <use xlink:href="#DejaVuSans-Bold-72" x="1494.433594"/>
     <use xlink:href="#DejaVuSans-Bold-69" x="1543.75"/>
     <use xlink:href="#DejaVuSans-Bold-62" x="1578.027344"/>
     <use xlink:href="#DejaVuSans-Bold-75" x="1649.609375"/>
     <use xlink:href="#DejaVuSans-Bold-74" x="1720.800781"/>
     <use xlink:href="#DejaVuSans-Bold-69" x="1768.603516"/>
     <use xlink:href="#DejaVuSans-Bold-6f" x="1802.880859"/>
     <use xlink:href="#DejaVuSans-Bold-6e" x="1871.582031"/>
    </g>
   </g>
  </g>
 </g>
</svg>
